<svg xmlns="http://www.w3.org/2000/svg" xmlns:xlink="http://www.w3.org/1999/xlink" width="1000" height="698.073" viewBox="0 0 1000 698.073">
  <defs>
    <linearGradient id="linear-gradient" x1="2024.027" y1="1" x2="2024.027" gradientUnits="objectBoundingBox">
      <stop offset="0" stop-color="gray" stop-opacity="0.251"/>
      <stop offset="0.54" stop-color="gray" stop-opacity="0.122"/>
      <stop offset="1" stop-color="gray" stop-opacity="0.102"/>
    </linearGradient>
    <linearGradient id="linear-gradient-2" x1="-0.328" y1="1" x2="-0.328" y2="0" xlink:href="#linear-gradient"/>
    <linearGradient id="linear-gradient-3" x1="-1.465" y1="1" x2="-1.465" y2="0" xlink:href="#linear-gradient"/>
    <linearGradient id="linear-gradient-4" x1="13.984" y1="1" x2="13.984" y2="0" xlink:href="#linear-gradient"/>
    <linearGradient id="linear-gradient-5" x1="14.718" y1="1" x2="14.718" y2="0" xlink:href="#linear-gradient"/>
  </defs>
  <g id="undraw_goal_0v5v" transform="translate(0.005 0.005)">
    <path id="Path_67" data-name="Path 67" d="M28.14,111.009c3.245,27.621,26,49.493,31.4,76.773a74.559,74.559,0,0,1,1.239,10.835c.776,15.667-2.32,31.658-.724,47.352,2.975,29.43,20.832,52.429,43.5,72.36,17.15,15.038,37.057,28.268,55.368,41.069,46.618,32.619,90.34,73.8,109.488,127.437,12.762,35.765,13.739,74.632,23.108,111.437s30.707,74.466,66.769,86.2c38.706,12.6,81.355-8.406,121.186-.1,42.745,8.913,73.059,49.379,115.237,60.809,53.588,14.523,106.993-21.164,162-28.6,26.415-3.574,53.3-.542,79.855-2.831a200.473,200.473,0,0,0,83.806-26.669c8.723-5.129,17.543-11.429,21.6-20.744,3.489-8.048,2.957-17.223,1.884-25.935-4.013-32.331-14.167-67.476,1.806-95.892,14.734-26.214,50.439-44.966,45.144-74.562-3.184-17.817-20.666-28.941-36.874-36.919-33.428-16.454-69.037-29.334-98.915-51.555-21.372-15.921-39.779-38.133-47.63-63.116a84.29,84.29,0,0,1-3.908-30.968c1.1-16.515,6.8-35.057-3.14-48.278-4.309-5.732-10.913-9.254-17.552-11.945-25.036-10.136-52.847-10.722-78.878-17.922A108.709,108.709,0,0,1,678.4,198.617c-15.877-9.21-28.657-22.78-31.745-40.492-1.806-10.381-.2-21.714-5.374-30.889-8.724-15.554-25.97-22.055-45.231-24.17-23.841-2.621-50.84,1.477-68.915,3.5l-1.806.192c-23.213,2.42-46.234-2.726-68.854-10.486-24.426-8.31-48.3-19.617-71.532-27.656q-3.271-1.136-6.525-2.176a333.637,333.637,0,0,0-51.922-12.1,338.885,338.885,0,0,0-75.022-2.9,332.293,332.293,0,0,0-37.842,4.928q-5.513,1.049-11.009,2.246c-21.3,4.57-42.492,10.154-64.222,10.486H133.7c-25.917-.446-52.419-7.043-77.011.926C45.508,73.662,34.787,80.827,30.286,91.7,27.782,97.753,27.381,104.507,28.14,111.009Z" transform="translate(-27.8 -50.55)" fill="#6c63ff" opacity="0.4"/>
    <path id="Path_68" data-name="Path 68" d="M65.5,210.16H88.969A31.091,31.091,0,0,1,109.4,182.726a21.947,21.947,0,1,1,21.17,0A31.091,31.091,0,0,1,151,210.16h.2a31.091,31.091,0,0,1,20.374-26.519A21.947,21.947,0,1,1,203.733,160.4a31.027,31.027,0,0,1,8.989-5.112,21.947,21.947,0,1,1,21.17,0,31.091,31.091,0,0,1,20.5,29.262v25.6h10.059V190.042a31.091,31.091,0,0,1,20.5-29.262,21.947,21.947,0,1,1,21.17,0,31.183,31.183,0,0,1,17.923,16.862,31.173,31.173,0,0,1,14.887-11.376,21.947,21.947,0,1,1,21.17,0,31.192,31.192,0,0,1,15.93,13.013v-3.868a31.091,31.091,0,0,1,20.5-29.262,21.947,21.947,0,1,1,21.17,0,31.091,31.091,0,0,1,20.5,29.262V210.16H449.18a31.174,31.174,0,0,1,17.731-16.46,21.947,21.947,0,1,1,21.17,0,30.972,30.972,0,0,1,6.182,3.063,31.091,31.091,0,0,1,20.246-25.01,21.947,21.947,0,1,1,21.17,0,31.155,31.155,0,0,1,19.2,20.484,31.091,31.091,0,0,1,12.638-8.6,21.947,21.947,0,1,1,21.17,0,31.028,31.028,0,0,1,9.218,5.3,31.183,31.183,0,0,1,18.106-17.192,21.947,21.947,0,1,1,21.169,0,31.091,31.091,0,0,1,20.5,29.262v9.144h55.233a114.062,114.062,0,0,0,26.748,11.111c27.287,7.535,56.44,8.148,82.685,18.755,6.959,2.817,13.881,6.5,18.4,12.5,10.425,13.836,4.444,33.24,3.292,50.523a88.069,88.069,0,0,0,4.069,32.39H110.34c-23.776-20.813-42.485-44.927-45.6-75.726C63.108,243.3,66.309,226.565,65.5,210.16Z" transform="translate(-30.92 -55.207)" opacity="0.2"/>
    <path id="Path_69" data-name="Path 69" d="M989.109,76.542v354.8L970.82,419.452V76.542H959.847l-4.572,331.022-17.375-12.8L949.788,71.97" transform="translate(-126.744 -6.157)" fill="none" stroke="#e0e0e0" stroke-miterlimit="10" stroke-width="1"/>
    <line id="Line_1" data-name="Line 1" x1="74.07" y2="4.115" transform="translate(811.165 95.989)" fill="none" stroke="#e0e0e0" stroke-miterlimit="10" stroke-width="1"/>
    <line id="Line_2" data-name="Line 2" x1="69.498" y2="2.743" transform="translate(811.165 114.278)" fill="none" stroke="#e0e0e0" stroke-miterlimit="10" stroke-width="1"/>
    <line id="Line_3" data-name="Line 3" x1="69.498" y2="1.829" transform="translate(811.165 136.225)" fill="none" stroke="#e0e0e0" stroke-miterlimit="10" stroke-width="1"/>
    <line id="Line_4" data-name="Line 4" x1="69.498" y2="2.743" transform="translate(811.165 149.369)" fill="none" stroke="#e0e0e0" stroke-miterlimit="10" stroke-width="1"/>
    <line id="Line_5" data-name="Line 5" x1="72.242" transform="translate(808.422 171.24)" fill="none" stroke="#e0e0e0" stroke-miterlimit="10" stroke-width="1"/>
    <line id="Line_6" data-name="Line 6" x1="74.07" y1="2.743" transform="translate(806.593 190.431)" fill="none" stroke="#e0e0e0" stroke-miterlimit="10" stroke-width="1"/>
    <line id="Line_7" data-name="Line 7" x1="74.07" y1="3.658" transform="translate(806.593 209.639)" fill="none" stroke="#e0e0e0" stroke-miterlimit="10" stroke-width="1"/>
    <line id="Line_8" data-name="Line 8" x1="74.07" y1="5.487" transform="translate(806.593 229.705)" fill="none" stroke="#e0e0e0" stroke-miterlimit="10" stroke-width="1"/>
    <line id="Line_9" data-name="Line 9" x1="78.643" y1="7.316" transform="translate(803.85 247.146)" fill="none" stroke="#e0e0e0" stroke-miterlimit="10" stroke-width="1"/>
    <line id="Line_10" data-name="Line 10" x1="78.643" y1="11.888" transform="translate(803.85 264.535)" fill="none" stroke="#e0e0e0" stroke-miterlimit="10" stroke-width="1"/>
    <line id="Line_11" data-name="Line 11" x1="81.386" y1="14.631" transform="translate(801.106 287.184)" fill="none" stroke="#e0e0e0" stroke-miterlimit="10" stroke-width="1"/>
    <line id="Line_12" data-name="Line 12" x1="81.386" y1="23.776" transform="translate(801.106 307.074)" fill="none" stroke="#e0e0e0" stroke-miterlimit="10" stroke-width="1"/>
    <line id="Line_13" data-name="Line 13" x1="85.958" y1="33.835" transform="translate(798.363 326.913)" fill="none" stroke="#e0e0e0" stroke-miterlimit="10" stroke-width="1"/>
    <line id="Line_14" data-name="Line 14" x1="85.958" y1="42.065" transform="translate(798.363 345.891)" fill="none" stroke="#e0e0e0" stroke-miterlimit="10" stroke-width="1"/>
    <path id="Path_70" data-name="Path 70" d="M866.538,75.628,851.907,387.446H832.7L844.591,75.628H823.559L809.842,387.446H788.81L800.7,75.628h-25.6l-9.145,311.818H743.087L753.146,78.371H729.37l-5.487,309.075H702.851l6.4-311.818H688.22l-4.572,311.818H663.53L668.1,75.628H644.326V387.446H620.551V75.628H598.6l3.658,311.818h-19.2L577.572,75.628H555.625l7.316,311.818h-19.2L534.592,75.628h-19.2L522.7,387.446H505.33L491.613,75.628H473.324l14.631,311.818H469.666L449.548,75.628H427.6l25.6,311.818H435.832L411.142,75.628H393.767l25.6,311.818h-19.2L375.478,71.97H358.1l28.348,315.476H368.162L338.9,71.97" transform="translate(-77.771 -6.157)" fill="none" stroke="#e0e0e0" stroke-miterlimit="10" stroke-width="1"/>
    <path id="Path_71" data-name="Path 71" d="M290.479,76.542l27.434,316.391L304.2,403.906,283.163,76.542H268.532l14.631,339.252-21.032,13.717L253.91,71.97" transform="translate(-61.713 -6.157)" fill="none" stroke="#e0e0e0" stroke-miterlimit="10" stroke-width="1"/>
    <line id="Line_15" data-name="Line 15" x2="84.129" transform="translate(166.821 106.048)" fill="none" stroke="#e0e0e0" stroke-miterlimit="10" stroke-width="1"/>
    <line id="Line_16" data-name="Line 16" x2="84.129" transform="translate(166.821 128.91)" fill="none" stroke="#e0e0e0" stroke-miterlimit="10" stroke-width="1"/>
    <line id="Line_17" data-name="Line 17" y1="2.743" x2="84.129" transform="translate(166.821 145.001)" fill="none" stroke="#e0e0e0" stroke-miterlimit="10" stroke-width="1"/>
    <line id="Line_18" data-name="Line 18" y1="4.572" x2="87.787" transform="translate(166.782 164.202)" fill="none" stroke="#e0e0e0" stroke-miterlimit="10" stroke-width="1"/>
    <line id="Line_19" data-name="Line 19" y1="3.658" x2="87.787" transform="translate(166.782 188.673)" fill="none" stroke="#e0e0e0" stroke-miterlimit="10" stroke-width="1"/>
    <line id="Line_20" data-name="Line 20" y1="4.572" x2="91.445" transform="translate(166.743 213.121)" fill="none" stroke="#e0e0e0" stroke-miterlimit="10" stroke-width="1"/>
    <line id="Line_21" data-name="Line 21" y1="9.145" x2="91.445" transform="translate(166.743 233.144)" fill="none" stroke="#e0e0e0" stroke-miterlimit="10" stroke-width="1"/>
    <line id="Line_22" data-name="Line 22" y1="21.947" x2="91.445" transform="translate(166.743 248.651)" fill="none" stroke="#e0e0e0" stroke-miterlimit="10" stroke-width="1"/>
    <line id="Line_23" data-name="Line 23" y1="32.006" x2="95.103" transform="translate(166.703 263.302)" fill="none" stroke="#e0e0e0" stroke-miterlimit="10" stroke-width="1"/>
    <line id="Line_24" data-name="Line 24" y1="36.578" x2="95.103" transform="translate(166.703 284.138)" fill="none" stroke="#e0e0e0" stroke-miterlimit="10" stroke-width="1"/>
    <line id="Line_25" data-name="Line 25" y1="39.733" x2="94.673" transform="translate(164.099 305.469)" fill="none" stroke="#e0e0e0" stroke-miterlimit="10" stroke-width="1"/>
    <line id="Line_26" data-name="Line 26" y1="49.38" x2="97.846" transform="translate(164.064 323.936)" fill="none" stroke="#e0e0e0" stroke-miterlimit="10" stroke-width="1"/>
    <line id="Line_27" data-name="Line 27" y1="55.781" x2="100.59" transform="translate(164.035 342.932)" fill="none" stroke="#e0e0e0" stroke-miterlimit="10" stroke-width="1"/>
    <line id="Line_28" data-name="Line 28" x1="561.472" y2="4.572" transform="translate(248.798 95.989)" fill="none" stroke="#e0e0e0" stroke-miterlimit="10" stroke-width="1"/>
    <line id="Line_29" data-name="Line 29" x1="561.472" y2="4.572" transform="translate(248.385 112.45)" fill="none" stroke="#e0e0e0" stroke-miterlimit="10" stroke-width="1"/>
    <line id="Line_30" data-name="Line 30" x1="561.472" y2="4.572" transform="translate(247.972 128.91)" fill="none" stroke="#e0e0e0" stroke-miterlimit="10" stroke-width="1"/>
    <line id="Line_31" data-name="Line 31" x1="561.472" y2="4.572" transform="translate(247.558 138.869)" fill="none" stroke="#e0e0e0" stroke-miterlimit="10" stroke-width="1"/>
    <line id="Line_32" data-name="Line 32" x1="561.472" y2="4.572" transform="translate(247.145 154.593)" fill="none" stroke="#e0e0e0" stroke-miterlimit="10" stroke-width="1"/>
    <line id="Line_33" data-name="Line 33" x1="554.157" y2="4.572" transform="translate(253.775 170.317)" fill="none" stroke="#e0e0e0" stroke-miterlimit="10" stroke-width="1"/>
    <line id="Line_34" data-name="Line 34" x1="554.157" y2="4.572" transform="translate(253.361 186.041)" fill="none" stroke="#e0e0e0" stroke-miterlimit="10" stroke-width="1"/>
    <line id="Line_35" data-name="Line 35" x1="554.157" y2="4.572" transform="translate(252.947 201.765)" fill="none" stroke="#e0e0e0" stroke-miterlimit="10" stroke-width="1"/>
    <line id="Line_36" data-name="Line 36" x1="554.157" y2="4.572" transform="translate(252.533 217.489)" fill="none" stroke="#e0e0e0" stroke-miterlimit="10" stroke-width="1"/>
    <line id="Line_37" data-name="Line 37" x1="548.67" y2="4.572" transform="translate(257.404 233.213)" fill="none" stroke="#e0e0e0" stroke-miterlimit="10" stroke-width="1"/>
    <line id="Line_38" data-name="Line 38" x1="548.67" y2="4.572" transform="translate(256.99 248.937)" fill="none" stroke="#e0e0e0" stroke-miterlimit="10" stroke-width="1"/>
    <line id="Line_39" data-name="Line 39" x1="548.67" y2="4.572" transform="translate(256.575 264.661)" fill="none" stroke="#e0e0e0" stroke-miterlimit="10" stroke-width="1"/>
    <line id="Line_40" data-name="Line 40" x1="545.012" y2="4.572" transform="translate(259.686 280.385)" fill="none" stroke="#e0e0e0" stroke-miterlimit="10" stroke-width="1"/>
    <line id="Line_41" data-name="Line 41" x1="545.012" y2="4.572" transform="translate(259.271 296.109)" fill="none" stroke="#e0e0e0" stroke-miterlimit="10" stroke-width="1"/>
    <line id="Line_42" data-name="Line 42" x1="542.269" y2="4.572" transform="translate(261.501 311.833)" fill="none" stroke="#e0e0e0" stroke-miterlimit="10" stroke-width="1"/>
    <line id="Line_43" data-name="Line 43" x1="542.269" y2="4.572" transform="translate(261.086 327.557)" fill="none" stroke="#e0e0e0" stroke-miterlimit="10" stroke-width="1"/>
    <line id="Line_44" data-name="Line 44" x1="542.269" y2="4.572" transform="translate(260.671 343.281)" fill="none" stroke="#e0e0e0" stroke-miterlimit="10" stroke-width="1"/>
    <path id="Path_72" data-name="Path 72" d="M950.659,476.4,867.444,416.96H327L231.91,476.4" transform="translate(-66.347 -54.116)" fill="none" stroke="#e0e0e0" stroke-miterlimit="10" stroke-width="3"/>
    <path id="Path_73" data-name="Path 73" d="M1051.35,445.274s2.112-62.42,35.874-97.672a94.627,94.627,0,0,0,25.952-53.953,159.128,159.128,0,0,0,.8-29.089" transform="translate(-161.871 -80.414)" fill="none" stroke="#535461" stroke-miterlimit="10" stroke-width="2"/>
    <path id="Path_74" data-name="Path 74" d="M1140.54,238.494c-2.314,6.968-21.627,22.989-21.627,22.989s-5.917-24.4-3.6-31.366a13.3,13.3,0,1,1,25.24,8.368Z" transform="translate(-167.297 -72.466)" fill="#6c63ff"/>
    <path id="Path_75" data-name="Path 75" d="M1148.892,287.7c-5.724,4.572-30.652,7.544-30.652,7.544s8.294-23.693,14.018-28.284a13.295,13.295,0,1,1,16.636,20.742Z" transform="translate(-167.594 -77.876)" fill="#6c63ff"/>
    <path id="Path_76" data-name="Path 76" d="M1124.008,359.247c-7.261,1.07-30.268-8.962-30.268-8.962s19.121-16.268,26.382-17.375a13.3,13.3,0,0,1,3.886,26.3Z" transform="translate(-165.498 -86.6)" fill="#6c63ff"/>
    <path id="Path_77" data-name="Path 77" d="M1092.817,409.373c-6.977,2.286-31.347-3.722-31.347-3.722s16.094-19.258,23.072-21.554a13.295,13.295,0,1,1,8.277,25.269Z" transform="translate(-162.737 -93.065)" fill="#6c63ff"/>
    <path id="Path_78" data-name="Path 78" d="M1088.629,288.182c3.393,6.511,25.01,19.267,25.01,19.267s1.966-25.019-1.417-31.539a13.3,13.3,0,0,0-23.593,12.272Z" transform="translate(-164.932 -78.58)" fill="#6c63ff"/>
    <path id="Path_79" data-name="Path 79" d="M1052.8,346.938c5.185,5.2,29.628,10.9,29.628,10.9s-5.606-24.462-10.791-29.665A13.3,13.3,0,1,0,1052.8,346.94Z" transform="translate(-161.663 -85.625)" fill="#6c63ff"/>
    <path id="Path_80" data-name="Path 80" d="M1026.193,409.227c4.225,6,27.36,15.747,27.36,15.747s-1.39-25.065-5.624-31.091a13.3,13.3,0,1,0-21.737,15.317Z" transform="translate(-159.511 -93.89)" fill="#6c63ff"/>
    <path id="Path_81" data-name="Path 81" d="M1066.35,506.274s2.112-62.42,35.874-97.672a94.628,94.628,0,0,0,25.952-53.953,159.117,159.117,0,0,0,.8-29.089" transform="translate(-163.154 -88.927)" fill="none" stroke="#535461" stroke-miterlimit="10" stroke-width="2"/>
    <path id="Path_82" data-name="Path 82" d="M1155.539,299.494c-2.314,6.968-21.627,22.989-21.627,22.989s-5.917-24.4-3.6-31.366a13.3,13.3,0,1,1,25.24,8.368Z" transform="translate(-168.58 -80.309)" fill="#6c63ff"/>
    <path id="Path_83" data-name="Path 83" d="M1163.892,348.7c-5.724,4.572-30.652,7.544-30.652,7.544s8.294-23.693,14.018-28.284a13.295,13.295,0,1,1,16.636,20.742Z" transform="translate(-168.877 -85.684)" fill="#6c63ff"/>
    <path id="Path_84" data-name="Path 84" d="M1139.008,420.247c-7.261,1.07-30.268-8.962-30.268-8.962s19.121-16.268,26.382-17.375a13.3,13.3,0,0,1,3.886,26.3Z" transform="translate(-166.781 -94.391)" fill="#6c63ff"/>
    <path id="Path_85" data-name="Path 85" d="M1107.817,470.373c-6.977,2.286-31.347-3.722-31.347-3.722s16.094-19.258,23.072-21.554a13.295,13.295,0,1,1,8.277,25.269Z" transform="translate(-164.02 -100.855)" fill="#6c63ff"/>
    <path id="Path_86" data-name="Path 86" d="M1103.629,349.182c3.393,6.511,25.01,19.267,25.01,19.267s1.966-25.019-1.417-31.539a13.3,13.3,0,0,0-23.593,12.272Z" transform="translate(-166.215 -86.416)" fill="#6c63ff"/>
    <path id="Path_87" data-name="Path 87" d="M1067.8,407.938c5.185,5.2,29.628,10.9,29.628,10.9s-5.606-24.462-10.791-29.665A13.3,13.3,0,1,0,1067.8,407.94Z" transform="translate(-162.947 -93.442)" fill="#6c63ff"/>
    <path id="Path_88" data-name="Path 88" d="M1041.193,470.227c4.225,6,27.36,15.747,27.36,15.747s-1.39-25.065-5.624-31.091a13.3,13.3,0,1,0-21.737,15.317Z" transform="translate(-160.794 -101.718)" fill="#6c63ff"/>
    <path id="Path_89" data-name="Path 89" d="M244.387,154.857c.448-17.695,12.7-33.24,29.994-37.035l.494-.1a10.443,10.443,0,0,1,2.122-.2H961.371a29.262,29.262,0,0,1,25.211,14.009l.174.3a12,12,0,0,1,1.573,5.788L994.684,497H972.738L965.422,145.85s0-10.059-9.144-10.973c-1.4-.137-18.371-.238-46.1-.3L894.1,438.483H884.96l17.878-303.918c-121.9-.238-420.254.064-558.729.229l17.759,301.86h-9.145L336.774,134.8l-52.709.064a22.139,22.139,0,0,0-19.1,10.973l-7.316,351.149H235.7Z" transform="translate(-92.092 -56.28)" fill="#e0e0e0"/>
    <path id="Path_90" data-name="Path 90" d="M235.559,527.117S232.6,478.78,256.07,449.078a73.375,73.375,0,0,0,16.067-43.546A123.451,123.451,0,0,0,270.6,383" transform="translate(-54.309 -95.822)" fill="none" stroke="#535461" stroke-miterlimit="10" stroke-width="2"/>
    <path id="Path_91" data-name="Path 91" d="M288.053,361.278c-1.271,5.551-15.006,19.341-15.006,19.341s-6.4-18.4-5.094-23.94a10.315,10.315,0,1,1,20.118,4.572Z" transform="translate(-58.278 -88.721)" fill="#6c63ff"/>
    <path id="Path_92" data-name="Path 92" d="M298.248,398.585c-4.088,3.969-23.108,8.084-23.108,8.084s4.655-18.9,8.742-22.861a10.308,10.308,0,0,1,14.366,14.787Z" transform="translate(-59.27 -92.727)" fill="#6c63ff"/>
    <path id="Path_93" data-name="Path 93" d="M284.213,455.6c-5.487,1.363-24.023-4.691-24.023-4.691s13.543-13.964,19.085-15.326a10.309,10.309,0,0,1,4.938,20.017Z" transform="translate(-57.422 -99.55)" fill="#6c63ff"/>
    <path id="Path_94" data-name="Path 94" d="M263.851,496.605c-5.221,2.277-24.471-.567-24.471-.567s10.973-16.058,16.222-18.289a10.3,10.3,0,1,1,8.231,18.895Z" transform="translate(-54.759 -104.852)" fill="#6c63ff"/>
    <path id="Path_95" data-name="Path 95" d="M251.645,403.511c3.091,4.783,20.721,13.031,20.721,13.031s-.32-19.46-3.42-24.242a10.308,10.308,0,1,0-17.3,11.211Z" transform="translate(-56.035 -93.647)" fill="#6c63ff"/>
    <path id="Path_96" data-name="Path 96" d="M228.3,451.443c4.38,3.658,23.675,6.237,23.675,6.237s-6.127-18.472-10.516-22.111A10.31,10.31,0,1,0,228.3,451.443Z" transform="translate(-44.634 -99.375)" fill="#6c63ff"/>
    <path id="Path_97" data-name="Path 97" d="M212.347,501.488c3.7,4.325,22.276,10.15,22.276,10.15s-2.917-19.2-6.63-23.565A10.311,10.311,0,1,0,212.338,501.5Z" transform="translate(-43.375 -105.987)" fill="#6c63ff"/>
    <path id="Path_98" data-name="Path 98" d="M288.053,361.278c-1.271,5.551-15.006,19.341-15.006,19.341s-6.4-18.4-5.094-23.94a10.315,10.315,0,1,1,20.118,4.572Z" transform="translate(-58.278 -88.721)" fill="#fff" opacity="0.5"/>
    <path id="Path_99" data-name="Path 99" d="M298.248,398.585c-4.088,3.969-23.108,8.084-23.108,8.084s4.655-18.9,8.742-22.861a10.308,10.308,0,0,1,14.366,14.787Z" transform="translate(-59.27 -92.727)" fill="#fff" opacity="0.5"/>
    <path id="Path_100" data-name="Path 100" d="M284.213,455.6c-5.487,1.363-24.023-4.691-24.023-4.691s13.543-13.964,19.085-15.326a10.309,10.309,0,0,1,4.938,20.017Z" transform="translate(-57.422 -99.55)" fill="#fff" opacity="0.5"/>
    <path id="Path_101" data-name="Path 101" d="M263.851,496.605c-5.221,2.277-24.471-.567-24.471-.567s10.973-16.058,16.222-18.289a10.3,10.3,0,1,1,8.231,18.895Z" transform="translate(-54.759 -104.852)" fill="#fff" opacity="0.5"/>
    <path id="Path_102" data-name="Path 102" d="M251.645,403.511c3.091,4.783,20.721,13.031,20.721,13.031s-.32-19.46-3.42-24.242a10.308,10.308,0,1,0-17.3,11.211Z" transform="translate(-56.035 -93.647)" fill="#fff" opacity="0.5"/>
    <path id="Path_103" data-name="Path 103" d="M228.3,451.443c4.38,3.658,23.675,6.237,23.675,6.237s-6.127-18.472-10.516-22.111A10.31,10.31,0,1,0,228.3,451.443Z" transform="translate(-44.634 -99.375)" fill="#fff" opacity="0.5"/>
    <path id="Path_104" data-name="Path 104" d="M212.347,501.488c3.7,4.325,22.276,10.15,22.276,10.15s-2.917-19.2-6.63-23.565A10.311,10.311,0,1,0,212.338,501.5Z" transform="translate(-43.375 -105.987)" fill="#fff" opacity="0.5"/>
    <g id="Group_9" data-name="Group 9" transform="translate(333.811 250.387)" opacity="0.1">
      <path id="Path_105" data-name="Path 105" d="M409.985,337.329a2.318,2.318,0,0,1-.165-.229Z" transform="translate(-409.82 -337.1)" fill="url(#linear-gradient)"/>
    </g>
    <path id="Path_106" data-name="Path 106" d="M575.337,345.271c-.174,5.825,3.438,8.011,3.438,8.011l33.743,29.884c13.022,4.719,14.631,29.473,14.631,29.473,1.28,2.286,1.829,6.255,1.829,10.973-.155,14.631-4.289,35.023-4.289,35.023l.119.192-.119.594.119.192-.119.594a36.154,36.154,0,0,0,2.094,3.027c-3.658,7.489-10.47,19.542-13.415,22.111-4.069,3.539-12.208,29.866-12.208,29.866l.265-.064-.265.85h.174a38.287,38.287,0,0,0-4.417,13.589,41.208,41.208,0,0,1-1.966,9.355,18.427,18.427,0,0,0-.3,10.909,47.227,47.227,0,0,1,1.591,8.77,54.867,54.867,0,0,0,4.161,16.6c3.722,8.843,8.651,20.923,8.907,23.355.137,1.317.457,3.255.823,5.258l-.21.055-8.751,19.844s-2.442,5.487-7.316,5.487a3.356,3.356,0,0,0-3.356,3.74,3.392,3.392,0,0,0,.21,1.628h0v.055c0,.091.082.183.119.274l.082.155a2.089,2.089,0,0,0,.165.265l.11.155.2.247.137.155.238.238.165.155.274.219.2.146.32.2.238.146.357.183.274.137.393.165.311.128.439.146.348.11.494.119.393.091.54.091.43.073.594.064.466.055h3.758a9.28,9.28,0,0,0,1.454-.119c15.875-1.573,27.671-13.717,27.671-13.717v-.457h0v-.229l.055-.064s-1.024-15.811-6.831-19.386a48.685,48.685,0,0,1-.914-8.916c0-10.973,3.255-22.011-5.7-40.089,0,0-.411-4.719,2.853-11.787a117.034,117.034,0,0,1,6.346-11.028l.4-.046-.649.86s10.58-.786,11.394-7.864a8.562,8.562,0,0,1,.411-1.728c2.451-7.114,14.284-17.2,19.533-17.923,5.7-.786,17.091,12.574,21.572,22.011.256.54.521,1.052.786,1.518,4.371,7.69,9.794,5.953,9.794,5.953-.192-.229-.357-.448-.53-.677a3.579,3.579,0,0,0,.53-.11,18.132,18.132,0,0,1-1.326-1.829c4.069,4.408,8.395,8.468,10.278,10.836,4.069,5.112,2.039,8.642,2.039,10.214,0,7.087-9.364,27.9-6.922,39.321,1.207,5.642-.174,12.244-1.884,17.475h-.357c-6.922,2.615-7.727,12-7.672,16.716v.43h0V629.7h0v1.1s19.533,8.642,36.221,10.973c.585.082,1.143.146,1.683.192h.494l1.052.064h1.884a3.746,3.746,0,0,0,.914-.073h.293q.567-.073,1.07-.183l.219-.055c.256-.064.494-.119.722-.192l.3-.1.54-.21.274-.128c.165-.082.32-.165.476-.256l.247-.192a5.334,5.334,0,0,0,.53-.393h0a4.571,4.571,0,0,0,.466-.466l.119-.146a4.125,4.125,0,0,0,.256-.347l.11-.183a3.1,3.1,0,0,0,.174-.347l.082-.183a3.906,3.906,0,0,0,.128-.4v-.137a4.054,4.054,0,0,0,.082-.54v-.1a4.3,4.3,0,0,0,0-.439c0-.055,0-.119,0-.174h0c.238-2.414-1.673-4.819-3.585-4.453-4.069.786-9.364-3.932-9.364-3.932l-11.129-18.179c-.174-4.252.3-9.657,2.99-14.046,5.295-8.642,11.806-27.113,11.806-27.113s-.814-11.394,2.442-16.9,0-14.147,0-14.147l-9.958-19.2h1.829l-.357-.786h.357s-12.208-27.113-17.091-30.259c-3.484-2.24-8.4-14.86-10.973-21.947,1.024-.54,1.591-.914,1.591-.914s2.853-34.191,2.853-55.781,14.631-30.259,14.631-30.259l33.9-20.063a16.833,16.833,0,0,0,10.178-12.574l-.1-.256c.073-.338.1-.53.1-.53l-.1-.256c.073-.338.1-.53.1-.53L736.272,303c0,.128-.1.238-.146.357-1.152-7.178-4.709-18.417-15.729-19.2-16.277-1.18-21.947,7.078-18.719,7.864s17.091,6.291,17.091,6.291l5.487,8.843c-.357-.119-.558-.2-.558-.2a1.92,1.92,0,0,1,.8.576l.366.585c-.713-.2-1.152-.375-1.152-.375a1.511,1.511,0,0,1,.284.156,1.745,1.745,0,0,1,.229.146,2.63,2.63,0,0,1,.21.21,3.085,3.085,0,0,1,.21.229c.073.091.137.192.21.293l.11.165a13.033,13.033,0,0,1-1.244-.4c4.261,1.372,6.044,27.223,6.4,33.835l-21.078,9.391s-21.16,0-30.113,5.112c-7.855,4.481-11.641.8-12.446-.174q.823,1.052,1.454,2.03h0l-.229-.155-.21-.146-.174-.137-.192-.165-.064-.055a33.149,33.149,0,0,1-3.6-11.12,18.536,18.536,0,0,0-.293-15,4.572,4.572,0,0,0,1.116.576,17.208,17.208,0,0,1-1.829-5.487c-.2-2.149.412-4.435-.5-6.4a4.94,4.94,0,0,0-.329-.576.26.26,0,0,0-.073-.21c-.914-1.993-3.155-3.091-4.572-4.828-.914-1.171-1.436-2.6-2.314-3.8A8.449,8.449,0,0,0,645,308.529c-1.335.54-2.579,1.445-4.024,1.472a9.042,9.042,0,0,1-2.2-.384,17.375,17.375,0,0,0-12.985,2.432,23.5,23.5,0,0,0-8.523,10.059,20.118,20.118,0,0,0-1.9,6.4,56.974,56.974,0,0,0,.11,7c.082,3.832-.485,7.855,1.152,11.339.1.219.229.411.338.622a.184.184,0,0,0,.064.165c1.555,3.319,4.81,5.487,7.928,7.581l4.033,2.661.457.3a22.072,22.072,0,0,0-3.475-.073c-6.109.393-18.289-5.487-18.289-5.487l-12.711-11.5,6.2-25.44-.238.174.238-.96-.238.174.238-.96c-.119.091-.229.174-.348.256l6.447-10.48s13.836-5.487,17.091-6.291-2.442-9.035-18.719-7.864c-11.979.869-15.143,14.073-15.975,21.032-.7-.777-1.116-1.344-1.116-1.344L577.139,336.4a19.258,19.258,0,0,0-1.829,8.1C575.328,344.768,575.328,345.033,575.337,345.271Zm92.231,13.717.329.494h0Zm-32.618.11a5.414,5.414,0,0,0,2.35-1.555,20.3,20.3,0,0,0,3.146.914,13.132,13.132,0,0,1-1.216,2.862c-.156-.613-.229-.988-.229-.988a38.6,38.6,0,0,0-4.051-1.244Zm-6.886,171.094c.914-1.472,1.829-2.908,2.743-4.261A39.55,39.55,0,0,1,628.065,530.191Z" transform="translate(-101.426 -89.131)" fill="url(#linear-gradient-2)"/>
    <path id="Path_107" data-name="Path 107" d="M720.863,535.33l11.659,23.318s3.109,8.55,0,13.991-2.332,16.716-2.332,16.716-6.218,18.289-11.275,26.821-1.948,21.032-1.948,21.032l-20.209,2.332s7.773-15.162,5.487-26.437,6.611-31.859,6.611-38.873c0-1.555,1.948-5.057-1.948-10.1s-18.655-17.877-18.289-25.266Z" transform="translate(-112.402 -115.002)" fill="#f7bbc3"/>
    <path id="Path_108" data-name="Path 108" d="M610.2,529.38s-7.462,10.333-8.331,20.392a42.059,42.059,0,0,1-1.829,9.245,18.838,18.838,0,0,0-.293,10.79,48.227,48.227,0,0,1,1.518,8.678,55.89,55.89,0,0,0,3.969,16.46c3.557,8.751,8.23,20.694,8.5,23.1.393,3.886,2.332,13.214,2.332,13.214l15.546,5.834s-4.664-11.275-4.664-22.157,3.109-21.764-5.487-39.651c0,0-.393-4.664,2.743-11.659s15.162-25.266,15.162-25.266Z" transform="translate(-100.821 -114.338)" fill="#f7bbc3"/>
    <path id="Path_109" data-name="Path 109" d="M635.969,538.484c1.28,1.39-5.313,10.242-5.313,10.242s10.1-.777,10.882-7.773a8.722,8.722,0,0,1,.393-1.71c2.341-7.032,13.644-17.009,18.655-17.722,5.487-.777,16.323,12.436,20.6,21.764.247.54.494,1.033.75,1.5,4.179,7.608,9.355,5.889,9.355,5.889-2.743-3.383-3.31-6.063-2.451-8.23,3.4-8.385,28.878-8.139,28.878-8.139s-11.659-26.821-16.323-29.93-12.052-26.437-12.052-26.437-55.589-6.218-55.974-3.5-11.275,24.1-15.161,27.6-11.65,29.555-11.65,29.555c13.214-3.886,27.79,5.633,29.345,6.8Z" transform="translate(-103.628 -105.982)" opacity="0.1"/>
    <path id="Path_110" data-name="Path 110" d="M635.968,537.634c1.28,1.39-5.313,10.242-5.313,10.242s10.1-.777,10.882-7.773a8.722,8.722,0,0,1,.393-1.71c2.341-7.032,13.644-17.009,18.655-17.722,5.487-.777,16.323,12.437,20.6,21.764.247.54.494,1.033.75,1.5,4.179,7.608,9.355,5.889,9.355,5.889-2.743-3.383-3.31-6.063-2.451-8.23,3.4-8.385,28.878-8.139,28.878-8.139s-11.659-26.821-16.323-29.93-12.052-26.437-12.052-26.437-55.589-6.218-55.974-3.5-11.275,24.1-15.162,27.6S606.55,530.73,606.55,530.73c13.214-3.886,27.79,5.633,29.345,6.8Z" transform="translate(-103.627 -105.871)" fill="#565171"/>
    <path id="Path_111" data-name="Path 111" d="M716.394,638.84l10.69,18.079s5.057,4.664,8.943,3.886,7.773,10.882-8.166,8.55-34.594-10.882-34.594-10.882-1.747-15.747,7.188-19.2Z" transform="translate(-113.01 -125.839)" opacity="0.1"/>
    <path id="Path_112" data-name="Path 112" d="M613.961,631.937,605.6,651.57s-2.332,5.487-7,5.487-6.218,9.721,8.943,8.166,26.437-13.607,26.437-13.607-1.171-18.655-8.166-19.825A29.82,29.82,0,0,0,613.961,631.937Z" transform="translate(-100.305 -124.986)" opacity="0.1"/>
    <path id="Path_113" data-name="Path 113" d="M716.394,639.69l10.69,18.079s5.057,4.664,8.943,3.886,7.773,10.882-8.166,8.55-34.594-10.882-34.594-10.882-1.747-15.747,7.188-19.2Z" transform="translate(-113.01 -125.947)" fill="#b77983"/>
    <path id="Path_114" data-name="Path 114" d="M613.961,632.827,605.6,652.46s-2.332,5.487-7,5.487-6.218,9.721,8.943,8.166,26.437-13.607,26.437-13.607-1.171-18.655-8.166-19.825A29.819,29.819,0,0,0,613.961,632.827Z" transform="translate(-100.305 -125.1)" fill="#b77983"/>
    <g id="Group_10" data-name="Group 10" transform="translate(503.647 367.066)" opacity="0.1">
      <path id="Path_115" data-name="Path 115" d="M635.309,473.635c-.393,2.743-11.275,24.1-15.162,27.6-3.566,3.21-10.416,25.44-11.513,29.043-.7.137-1.4.293-2.094.494,0,0,7.773-26.044,11.659-29.546s14.768-24.882,15.162-27.6c.073-.54,2.35-.732,5.926-.677C636.872,472.995,635.382,473.2,635.309,473.635Z" transform="translate(-606.54 -472.94)"/>
      <path id="Path_116" data-name="Path 116" d="M667.725,525.127c5.487-.777,16.323,12.437,20.6,21.764.247.54.494,1.033.75,1.5,2.414,4.389,5.148,5.67,7.041,5.971-1.253.229-5.487.421-8.989-5.971-.256-.466-.5-.96-.75-1.5-3.923-8.559-13.4-20.374-19.139-21.672Z" transform="translate(-611.733 -477.402)"/>
      <path id="Path_117" data-name="Path 117" d="M636.691,542.961l-.064-.064c-1.253-.914-10.973-7.316-21.627-7.709,11.385-.393,22.239,6.712,23.575,7.709l.064.064c1.125,1.225-3.832,8.23-5.048,9.876a17.715,17.715,0,0,1-2.2.357S637.971,544.351,636.691,542.961Z" transform="translate(-607.264 -478.264)"/>
    </g>
    <path id="Path_118" data-name="Path 118" d="M744.9,311.1s0-23.712-15.546-24.882-21.032,7-17.878,7.773S727.8,300.21,727.8,300.21l8.55,14.384Z" transform="translate(-114.904 -80.663)" fill="#f7bbc3"/>
    <path id="Path_119" data-name="Path 119" d="M594.23,317.052s0-23.712,15.546-24.882,21.032,7,17.878,7.773-16.323,6.218-16.323,6.218l-8.55,14.384Z" transform="translate(-100.057 -81.424)" fill="#f7bbc3"/>
    <path id="Path_120" data-name="Path 120" d="M668.515,346.17s-1.171,15.546,8.55,24.489-22.541,20.209-22.541,20.209l-14.384-17.1s11.659-7,5.487-19.048Z" transform="translate(-106.027 -88.637)" fill="#f7bbc3"/>
    <path id="Path_121" data-name="Path 121" d="M666.444,361.2s3.5,5.487,12.052.393,28.769-5.1,28.769-5.1l20.209-9.327s-1.555-33.432-6.218-34.987c0,0,9.327,3.886,12.052-3.886L748.854,349.5s-1.171,8.943-9.721,12.437l-32.262,19.825s-13.991,8.55-13.991,29.93-2.743,55.2-2.743,55.2-45.092,27.214-63.362-4.664c0,0,7.389-37.7,2.332-47.039,0,0-1.555-24.489-13.991-29.153l-32.244-29.537s-6.218-3.886-1.555-15.162L592.2,314.508s6.612,9.327,12.052,4.664l-6.218,26.437,12.437,11.659s11.659,5.834,17.493,5.487,12.437,2.332,12.437,2.332,2.743,15.546,15.162,13.991C655.562,379.078,679.274,377.916,666.444,361.2Z" transform="translate(-101.756 -86.237)" opacity="0.1"/>
    <path id="Path_122" data-name="Path 122" d="M666.442,359.5s3.5,5.487,12.052.393,28.769-5.057,28.769-5.057l20.209-9.327s-1.555-33.432-6.218-34.987c0,0,9.327,3.886,12.052-3.886l15.546,41.205s-1.171,8.943-9.721,12.437L706.87,380.125s-13.991,8.55-13.991,29.93-2.743,55.2-2.743,55.2-45.092,27.214-63.362-4.664c0,0,7.389-37.7,2.332-47.039,0,0-1.555-24.489-13.991-29.153L582.852,354.85s-6.218-3.886-1.555-15.162l10.882-26.821s6.612,9.327,12.052,4.664l-6.218,26.437,12.437,11.659s11.659,5.834,17.493,5.487,12.437,2.332,12.437,2.332,2.743,15.546,15.162,13.991C655.56,377.382,679.272,376.221,666.442,359.5Z" transform="translate(-101.753 -86.009)" opacity="0.1"/>
    <path id="Path_123" data-name="Path 123" d="M674.59,365.33l.155.21Z" transform="translate(-109.421 -90.276)" fill="#d39999"/>
    <path id="Path_124" data-name="Path 124" d="M582.873,355.692l32.262,29.546c12.437,4.664,13.991,29.153,13.991,29.153,5.057,9.327-2.332,47.039-2.332,47.039,18.289,31.878,63.362,4.664,63.362,4.664s.091-1.116.238-3.082c.128-1.719.3-4.1.494-6.922.256-3.658.549-8.075.823-12.866.613-10.47,1.171-22.669,1.171-32.326,0-21.38,13.991-29.93,13.991-29.93L731.078,366.1l8.065-4.956c8.55-3.5,9.721-12.437,9.721-12.437L733.318,307.5c-2.542,7.261-10.854,4.344-11.934,3.932,4.572,2.067,6.1,34.941,6.1,34.941L707.274,355.7s-20.209,0-28.769,5.057c-7.316,4.3-10.891,1.006-11.806-.082,12.29,16.46-11.129,17.567-11.129,17.567-12.436,1.555-15.162-13.991-15.162-13.991s-6.612-2.743-12.437-2.332-17.493-5.487-17.493-5.487l-12.437-11.659,6.218-26.437c-5.487,4.664-12.052-4.664-12.052-4.664l-10.882,26.821C576.654,351.805,582.873,355.692,582.873,355.692Z" transform="translate(-101.756 -86.127)" fill="#b45181"/>
    <path id="Path_125" data-name="Path 125" d="M669.023,347.87a37.386,37.386,0,0,0,.375,7.316,19.039,19.039,0,0,1-21.947,11.458,13.717,13.717,0,0,0-1.381-10.205Z" transform="translate(-106.391 -88.396)" opacity="0.1"/>
    <circle id="Ellipse_58" data-name="Ellipse 58" cx="19.048" cy="19.048" r="19.048" transform="translate(526.532 239.692)" fill="#f7bbc3"/>
    <path id="Path_126" data-name="Path 126" d="M649.952,332.679c.165,1.929.3,3.987-.585,5.706a10.331,10.331,0,0,1-1.829,2.341l-3.987,4.106a10.508,10.508,0,0,0-2.844,4.051c-1.152,3.841,2.25,7.654,2.14,11.668a5.194,5.194,0,0,1-5.889,2.176,10.059,10.059,0,0,1-2.46-1.363l-3.9-2.661c-2.972-2.03-6.081-4.225-7.572-7.5-1.564-3.447-1.033-7.434-1.107-11.22a58.343,58.343,0,0,1-.1-6.922,20.392,20.392,0,0,1,1.829-6.346,23.053,23.053,0,0,1,8.139-9.9,16.14,16.14,0,0,1,12.4-2.405,8.365,8.365,0,0,0,2.1.375c1.381,0,2.57-.915,3.841-1.454a7.9,7.9,0,0,1,9.227,2.661c.841,1.189,1.326,2.606,2.2,3.758,1.308,1.719,3.438,2.807,4.325,4.773s.293,4.216.485,6.337a17.447,17.447,0,0,0,1.728,5.441c-2.158-.75-3.21-3.109-4.572-4.92a12.116,12.116,0,0,0-8.916-4.517c-1.189-.055-3.393-.146-4.335.759C649.074,328.784,649.833,331.271,649.952,332.679Z" transform="translate(-103.869 -84.427)" opacity="0.1"/>
    <path id="Path_127" data-name="Path 127" d="M649.532,331.832c.165,1.929.3,3.987-.585,5.706a10.334,10.334,0,0,1-1.829,2.341L643.076,344a10.509,10.509,0,0,0-2.844,4.024c-1.152,3.841,2.25,7.654,2.14,11.668a5.194,5.194,0,0,1-5.889,2.176,10.057,10.057,0,0,1-2.46-1.363l-3.85-2.625c-2.972-2.03-6.081-4.225-7.572-7.5-1.564-3.447-1.033-7.434-1.107-11.22a58.356,58.356,0,0,1-.1-6.922,20.394,20.394,0,0,1,1.829-6.346,23.053,23.053,0,0,1,8.139-9.9,16.14,16.14,0,0,1,12.4-2.405,8.368,8.368,0,0,0,2.1.375c1.381,0,2.57-.914,3.841-1.454a7.9,7.9,0,0,1,9.227,2.661c.841,1.189,1.326,2.606,2.2,3.758,1.308,1.719,3.438,2.807,4.325,4.773s.293,4.216.485,6.337a17.447,17.447,0,0,0,1.728,5.441c-2.158-.75-3.21-3.109-4.572-4.92a12.117,12.117,0,0,0-8.916-4.517c-1.189-.055-3.393-.146-4.334.759C648.645,327.936,649.377,330.414,649.532,331.832Z" transform="translate(-103.815 -84.321)" fill="#74585e"/>
    <g id="Group_11" data-name="Group 11" transform="translate(478.267 221.378)" opacity="0.1">
      <path id="Path_128" data-name="Path 128" d="M674.735,365.52c-.11-.137-.165-.219-.165-.219Z" transform="translate(-587.709 -312.436)"/>
      <path id="Path_129" data-name="Path 129" d="M602.77,320.689a5,5,0,0,0,3.466-1.3l-.375,1.573a5.486,5.486,0,0,1-3.091-.274Z" transform="translate(-581.567 -308.508)"/>
      <path id="Path_130" data-name="Path 130" d="M676.523,367.554c9.739,14.951-12.19,16.039-12.19,16.039a12.1,12.1,0,0,1-4.993-.357,12.991,12.991,0,0,0,3.045,0s23.5-1.161,11.047-17.667a6.328,6.328,0,0,0,3.091,1.984Z" transform="translate(-586.406 -312.459)"/>
      <path id="Path_131" data-name="Path 131" d="M634.183,367.378a16.394,16.394,0,0,1-4.673-.558,12.656,12.656,0,0,0,2.743.174,25.5,25.5,0,0,1,7.2.722A22.862,22.862,0,0,0,634.183,367.378Z" transform="translate(-583.855 -312.566)"/>
      <path id="Path_132" data-name="Path 132" d="M581.318,341.111,592.2,314.29a19.862,19.862,0,0,0,1.408,1.71l-10.342,25.458c-4.664,11.275,1.555,15.162,1.555,15.162l32.262,29.546c12.436,4.664,13.991,29.153,13.991,29.153,5.057,9.327-2.332,47.039-2.332,47.039,4.9,8.55,11.732,12.8,19.112,14.558-8.111-1.381-15.719-5.651-21.032-14.951,0,0,7.389-37.7,2.332-47.039,0,0-1.555-24.489-13.991-29.153l-32.289-29.5S576.654,352.386,581.318,341.111Z" transform="translate(-579.583 -308.072)"/>
      <path id="Path_133" data-name="Path 133" d="M729.836,311.74a14.415,14.415,0,0,0,2.46.7c4.261,3.74,5.7,34.667,5.7,34.667l-20.209,9.327s-20.209,0-28.769,5.057c-4.188,2.478-7.16,2.432-9.144,1.747a12.691,12.691,0,0,0,7.16-2.131c8.55-5.057,28.769-5.057,28.769-5.057l20.209-9.327S734.5,313.295,729.836,311.74Z" transform="translate(-588.163 -307.854)"/>
      <path id="Path_134" data-name="Path 134" d="M738.22,312.236c2.954.384,7.014-.046,8.66-4.746l.914,2.423C745.243,313.535,740.579,312.867,738.22,312.236Z" transform="translate(-593.155 -307.49)"/>
    </g>
    <path id="Path_135" data-name="Path 135" d="M702.069,448.695c.613-10.47,1.171-22.669,1.171-32.326,0-21.38,13.991-29.93,13.991-29.93l24.205-14.869c-14.083,3.658-32.82,9.958-34.5,17.375-2.743,12.052-7.773,13.214-5.834,33.835a233.08,233.08,0,0,1,.969,25.916Z" transform="translate(-113.816 -92.599)" opacity="0.1"/>
    <path id="Path_136" data-name="Path 136" d="M698.1,488.36s-3.5,10.882,6.218,17.878" transform="translate(-112.486 -106.243)" opacity="0.1"/>
    <path id="Path_137" data-name="Path 137" d="M638.1,488.36s-1.171,8.166-5.834,11.275" transform="translate(-104.215 -106.076)" opacity="0.1"/>
    <path id="Path_138" data-name="Path 138" d="M693.267,659.242s18.655,8.55,34.594,10.882c8.084,1.18,11.065-1.234,11.531-3.795.53,2.99-1.829,6.776-11.531,5.349-15.939-2.332-34.594-10.882-34.594-10.882a32.912,32.912,0,0,1-.128-3.886C693.166,658.327,693.267,659.242,693.267,659.242Z" transform="translate(-113.009 -127.585)" opacity="0.1"/>
    <path id="Path_139" data-name="Path 139" d="M607.178,665.7c15.162-1.555,26.437-13.607,26.437-13.607s-.576-9.2-3.338-15.079c3.1,5.807,3.731,15.857,3.731,15.857s-11.275,12.052-26.437,13.607c-7.745.8-11.129-1.353-11.961-3.658C596.881,664.8,600.319,666.4,607.178,665.7Z" transform="translate(-100.33 -125.562)" opacity="0.1"/>
    <path id="Path_140" data-name="Path 140" d="M628.2,229.3a34.292,34.292,0,1,0,7.133-20.923A34.292,34.292,0,0,0,628.2,229.3Z" transform="translate(-105.275 -69.389)" fill="url(#linear-gradient-3)"/>
    <path id="Path_141" data-name="Path 141" d="M629.58,229.423a33.039,33.039,0,1,0,6.867-20.118,33.039,33.039,0,0,0-6.867,20.118Z" transform="translate(-105.386 -69.548)" fill="#e0e0e0"/>
    <line id="Line_45" data-name="Line 45" y2="12.821" transform="translate(539.718 143.369)" fill="none" stroke="#535461" stroke-miterlimit="10" stroke-width="1"/>
    <line id="Line_46" data-name="Line 46" x1="13.378" y2="8.834" transform="translate(550.004 154.559)" fill="none" stroke="#535461" stroke-miterlimit="10" stroke-width="1"/>
    <line id="Line_47" data-name="Line 47" x2="15.665" y2="6.547" transform="translate(549.946 135.82)" fill="none" stroke="#535461" stroke-miterlimit="10" stroke-width="1"/>
    <line id="Line_48" data-name="Line 48" x1="0.86" y2="19.935" transform="translate(574.527 156.618)" fill="none" stroke="#535461" stroke-miterlimit="10" stroke-width="1"/>
    <line id="Line_49" data-name="Line 49" x1="17.658" y1="8.824" transform="translate(547.993 173.056)" fill="none" stroke="#535461" stroke-miterlimit="10" stroke-width="1"/>
    <line id="Line_50" data-name="Line 50" y2="11.129" transform="translate(539.718 174.392)" fill="none" stroke="#535461" stroke-miterlimit="10" stroke-width="1"/>
    <line id="Line_51" data-name="Line 51" x1="7.7" y1="3.411" transform="translate(525.923 163.052)" fill="none" stroke="#535461" stroke-miterlimit="10" stroke-width="1"/>
    <line id="Line_52" data-name="Line 52" x1="0.585" y1="9.318" transform="translate(573.974 132.058)" fill="none" stroke="#535461" stroke-miterlimit="10" stroke-width="1"/>
    <line id="Line_53" data-name="Line 53" x2="9.547" y2="2.725" transform="translate(579.203 151.361)" fill="none" stroke="#535461" stroke-miterlimit="10" stroke-width="1"/>
    <path id="Path_142" data-name="Path 142" d="M664.092,172.051l-7.4-12.821-12.245,1.993v14.238l13.095,6.84Z" transform="translate(-81.823 -20.304)" fill="#6c63ff"/>
    <path id="Path_143" data-name="Path 143" d="M637.09,209.325l7.663,3.923c2.56-3.42,13.095-7.407,13.095-7.407l-1.1-8.751a32.994,32.994,0,0,0-19.661,12.235Z" transform="translate(-105.187 -69.177)" fill="#6c63ff"/>
    <path id="Path_144" data-name="Path 144" d="M630.045,184.494l-13.388-6.264-7.407,10.534,7.69,12.244,13.1-1.993Z" transform="translate(-77.382 -22.724)" fill="#6c63ff"/>
    <path id="Path_145" data-name="Path 145" d="M672.24,255.82v10.525a33.03,33.03,0,0,0,21.3-13.854L684.2,248.66Z" transform="translate(-109.665 -75.749)" fill="#6c63ff"/>
    <path id="Path_146" data-name="Path 146" d="M136.3,495.418a28.769,28.769,0,1,0,5.971-17.548,28.768,28.768,0,0,0-5.971,17.548Z" transform="translate(-37.083 -104.503)" fill="url(#linear-gradient-4)"/>
    <path id="Path_147" data-name="Path 147" d="M137.46,495.517a27.708,27.708,0,1,0,5.752-16.908,27.706,27.706,0,0,0-5.752,16.908Z" transform="translate(-37.182 -104.594)" fill="#e0e0e0"/>
    <line id="Line_54" data-name="Line 54" y2="10.754" transform="translate(112.459 377.809)" fill="none" stroke="#535461" stroke-miterlimit="10" stroke-width="1"/>
    <line id="Line_55" data-name="Line 55" x1="11.229" y2="7.407" transform="translate(121.768 387.246)" fill="none" stroke="#535461" stroke-miterlimit="10" stroke-width="1"/>
    <line id="Line_56" data-name="Line 56" x2="13.141" y2="5.496" transform="translate(121.768 371.553)" fill="none" stroke="#535461" stroke-miterlimit="10" stroke-width="1"/>
    <line id="Line_57" data-name="Line 57" x1="0.713" y2="16.725" transform="translate(143.029 388.832)" fill="none" stroke="#535461" stroke-miterlimit="10" stroke-width="1"/>
    <line id="Line_58" data-name="Line 58" x1="14.814" y1="7.407" transform="translate(120.094 402.757)" fill="none" stroke="#535461" stroke-miterlimit="10" stroke-width="1"/>
    <line id="Line_59" data-name="Line 59" y2="9.337" transform="translate(112.459 403.851)" fill="none" stroke="#535461" stroke-miterlimit="10" stroke-width="1"/>
    <line id="Line_60" data-name="Line 60" x1="6.456" y1="2.862" transform="translate(100.507 394.436)" fill="none" stroke="#535461" stroke-miterlimit="10" stroke-width="1"/>
    <line id="Line_61" data-name="Line 61" x1="0.494" y1="7.809" transform="translate(142.535 368.371)" fill="none" stroke="#535461" stroke-miterlimit="10" stroke-width="1"/>
    <line id="Line_62" data-name="Line 62" x2="8.011" y2="2.286" transform="translate(147.327 384.639)" fill="none" stroke="#535461" stroke-miterlimit="10" stroke-width="1"/>
    <path id="Path_148" data-name="Path 148" d="M161.918,439.245,155.709,428.5l-10.269,1.664v11.943l10.983,5.734Z" transform="translate(-12.443 -54.545)" fill="#6c63ff"/>
    <path id="Path_149" data-name="Path 149" d="M143.75,478.663l6.4,3.292c2.149-2.862,10.973-6.209,10.973-6.209l-.914-7.316A27.671,27.671,0,0,0,143.75,478.663Z" transform="translate(-37.72 -103.602)" fill="#6c63ff"/>
    <path id="Path_150" data-name="Path 150" d="M133.359,449.679l-11.22-5.249-6.218,8.834,6.456,10.269,10.983-1.673Z" transform="translate(-9.917 -56.567)" fill="#6c63ff"/>
    <path id="Path_151" data-name="Path 151" d="M173.24,517.661v8.861A27.7,27.7,0,0,0,191.1,514.9l-7.828-3.21Z" transform="translate(-40.243 -109.129)" fill="#6c63ff"/>
    <path id="Path_152" data-name="Path 152" d="M113.2,533.228a28.769,28.769,0,1,0,5.971-17.548A28.768,28.768,0,0,0,113.2,533.228Z" transform="translate(-35.106 -109.405)" fill="url(#linear-gradient-5)"/>
    <path id="Path_153" data-name="Path 153" d="M114.36,533.327a27.708,27.708,0,1,0,5.752-16.908A27.706,27.706,0,0,0,114.36,533.327Z" transform="translate(-35.206 -109.492)" fill="#e0e0e0"/>
    <line id="Line_63" data-name="Line 63" y2="10.745" transform="translate(91.335 410.825)" fill="none" stroke="#535461" stroke-miterlimit="10" stroke-width="1"/>
    <line id="Line_64" data-name="Line 64" x1="11.22" y2="7.407" transform="translate(100.653 420.269)" fill="none" stroke="#535461" stroke-miterlimit="10" stroke-width="1"/>
    <line id="Line_65" data-name="Line 65" x2="13.132" y2="5.496" transform="translate(100.653 404.581)" fill="none" stroke="#535461" stroke-miterlimit="10" stroke-width="1"/>
    <line id="Line_66" data-name="Line 66" x1="0.713" y2="16.716" transform="translate(121.905 421.836)" fill="none" stroke="#535461" stroke-miterlimit="10" stroke-width="1"/>
    <line id="Line_67" data-name="Line 67" x1="14.805" y1="7.407" transform="translate(98.98 435.78)" fill="none" stroke="#535461" stroke-miterlimit="10" stroke-width="1"/>
    <line id="Line_68" data-name="Line 68" y2="9.337" transform="translate(91.335 436.87)" fill="none" stroke="#535461" stroke-miterlimit="10" stroke-width="1"/>
    <line id="Line_69" data-name="Line 69" x1="6.456" y1="2.862" transform="translate(79.383 427.469)" fill="none" stroke="#535461" stroke-miterlimit="10" stroke-width="1"/>
    <line id="Line_70" data-name="Line 70" x1="0.494" y1="7.809" transform="translate(121.411 401.393)" fill="none" stroke="#535461" stroke-miterlimit="10" stroke-width="1"/>
    <line id="Line_71" data-name="Line 71" x2="8.011" y2="2.286" transform="translate(126.203 417.673)" fill="none" stroke="#535461" stroke-miterlimit="10" stroke-width="1"/>
    <path id="Path_154" data-name="Path 154" d="M138.818,477.054,132.609,466.3l-10.269,1.673v11.943l10.992,5.734Z" transform="translate(-10.467 -59.357)" fill="#6c63ff"/>
    <path id="Path_155" data-name="Path 155" d="M120.65,516.473l6.4,3.292c2.149-2.862,10.973-6.209,10.973-6.209l-.914-7.316a27.671,27.671,0,0,0-16.46,10.233Z" transform="translate(-35.744 -108.402)" fill="#6c63ff"/>
    <path id="Path_156" data-name="Path 156" d="M110.259,487.488l-11.22-5.258-6.209,8.843,6.447,10.269,10.983-1.673Z" transform="translate(-7.942 -61.378)" fill="#6c63ff"/>
    <path id="Path_157" data-name="Path 157" d="M150.14,555.443V564.3A27.7,27.7,0,0,0,168,552.7l-7.828-3.21Z" transform="translate(-38.267 -113.93)" fill="#6c63ff"/>
  </g>
</svg>
