<svg xmlns="http://www.w3.org/2000/svg" xmlns:xlink="http://www.w3.org/1999/xlink" width="117.14" height="135.538" viewBox="0 0 117.14 135.538">
  <defs>
    <style>
      .cls-1 {
        fill: url(#linear-gradient);
      }

      .cls-2 {
        fill: url(#linear-gradient-8);
      }
    </style>
    <linearGradient id="linear-gradient" y1="0.5" x2="1" y2="0.5" gradientUnits="objectBoundingBox">
      <stop offset="0" stop-color="#e9234d"/>
      <stop offset="1" stop-color="#292978"/>
    </linearGradient>
    <linearGradient id="linear-gradient-8" x1="0" y1="0.5" y2="0.5" xlink:href="#linear-gradient"/>
  </defs>
  <g id="Group_6" data-name="Group 6" transform="translate(-831.486 -296)">
    <circle id="Ellipse_2" data-name="Ellipse 2" class="cls-1" cx="3.377" cy="3.377" r="3.377" transform="translate(831.486 296)"/>
    <circle id="Ellipse_3" data-name="Ellipse 3" class="cls-1" cx="3.377" cy="3.377" r="3.377" transform="translate(849.883 296)"/>
    <circle id="Ellipse_4" data-name="Ellipse 4" class="cls-1" cx="3.377" cy="3.377" r="3.377" transform="translate(868.281 296)"/>
    <circle id="Ellipse_5" data-name="Ellipse 5" class="cls-1" cx="3.377" cy="3.377" r="3.377" transform="translate(886.679 296)"/>
    <circle id="Ellipse_6" data-name="Ellipse 6" class="cls-1" cx="3.377" cy="3.377" r="3.377" transform="translate(905.076 296)"/>
    <circle id="Ellipse_7" data-name="Ellipse 7" class="cls-1" cx="3.377" cy="3.377" r="3.377" transform="translate(923.474 296)"/>
    <circle id="Ellipse_8" data-name="Ellipse 8" class="cls-1" cx="3.377" cy="3.377" r="3.377" transform="translate(941.871 296)"/>
    <circle id="Ellipse_9" data-name="Ellipse 9" class="cls-2" cx="3.377" cy="3.377" r="3.377" transform="translate(831.486 314.398)"/>
    <circle id="Ellipse_10" data-name="Ellipse 10" class="cls-2" cx="3.377" cy="3.377" r="3.377" transform="translate(849.883 314.398)"/>
    <circle id="Ellipse_11" data-name="Ellipse 11" class="cls-2" cx="3.377" cy="3.377" r="3.377" transform="translate(868.281 314.398)"/>
    <circle id="Ellipse_12" data-name="Ellipse 12" class="cls-2" cx="3.377" cy="3.377" r="3.377" transform="translate(886.679 314.398)"/>
    <circle id="Ellipse_13" data-name="Ellipse 13" class="cls-2" cx="3.377" cy="3.377" r="3.377" transform="translate(905.076 314.398)"/>
    <circle id="Ellipse_14" data-name="Ellipse 14" class="cls-2" cx="3.377" cy="3.377" r="3.377" transform="translate(923.474 314.398)"/>
    <circle id="Ellipse_15" data-name="Ellipse 15" class="cls-2" cx="3.377" cy="3.377" r="3.377" transform="translate(941.871 314.398)"/>
    <circle id="Ellipse_16" data-name="Ellipse 16" class="cls-2" cx="3.377" cy="3.377" r="3.377" transform="translate(831.486 332.795)"/>
    <circle id="Ellipse_17" data-name="Ellipse 17" class="cls-2" cx="3.377" cy="3.377" r="3.377" transform="translate(849.883 332.795)"/>
    <circle id="Ellipse_18" data-name="Ellipse 18" class="cls-2" cx="3.377" cy="3.377" r="3.377" transform="translate(868.281 332.795)"/>
    <circle id="Ellipse_19" data-name="Ellipse 19" class="cls-2" cx="3.377" cy="3.377" r="3.377" transform="translate(886.679 332.795)"/>
    <circle id="Ellipse_20" data-name="Ellipse 20" class="cls-2" cx="3.377" cy="3.377" r="3.377" transform="translate(905.076 332.795)"/>
    <circle id="Ellipse_21" data-name="Ellipse 21" class="cls-2" cx="3.377" cy="3.377" r="3.377" transform="translate(923.474 332.795)"/>
    <circle id="Ellipse_22" data-name="Ellipse 22" class="cls-2" cx="3.377" cy="3.377" r="3.377" transform="translate(941.871 332.795)"/>
    <circle id="Ellipse_23" data-name="Ellipse 23" class="cls-2" cx="3.377" cy="3.377" r="3.377" transform="translate(831.486 351.193)"/>
    <circle id="Ellipse_24" data-name="Ellipse 24" class="cls-2" cx="3.377" cy="3.377" r="3.377" transform="translate(849.883 351.193)"/>
    <circle id="Ellipse_25" data-name="Ellipse 25" class="cls-2" cx="3.377" cy="3.377" r="3.377" transform="translate(868.281 351.193)"/>
    <circle id="Ellipse_26" data-name="Ellipse 26" class="cls-2" cx="3.377" cy="3.377" r="3.377" transform="translate(886.679 351.193)"/>
    <circle id="Ellipse_27" data-name="Ellipse 27" class="cls-2" cx="3.377" cy="3.377" r="3.377" transform="translate(905.076 351.193)"/>
    <circle id="Ellipse_28" data-name="Ellipse 28" class="cls-2" cx="3.377" cy="3.377" r="3.377" transform="translate(923.474 351.193)"/>
    <circle id="Ellipse_29" data-name="Ellipse 29" class="cls-2" cx="3.377" cy="3.377" r="3.377" transform="translate(941.871 351.193)"/>
    <circle id="Ellipse_30" data-name="Ellipse 30" class="cls-2" cx="3.377" cy="3.377" r="3.377" transform="translate(831.486 369.59)"/>
    <circle id="Ellipse_31" data-name="Ellipse 31" class="cls-2" cx="3.377" cy="3.377" r="3.377" transform="translate(849.883 369.59)"/>
    <circle id="Ellipse_32" data-name="Ellipse 32" class="cls-2" cx="3.377" cy="3.377" r="3.377" transform="translate(868.281 369.59)"/>
    <circle id="Ellipse_33" data-name="Ellipse 33" class="cls-2" cx="3.377" cy="3.377" r="3.377" transform="translate(886.679 369.59)"/>
    <circle id="Ellipse_34" data-name="Ellipse 34" class="cls-2" cx="3.377" cy="3.377" r="3.377" transform="translate(905.076 369.59)"/>
    <circle id="Ellipse_35" data-name="Ellipse 35" class="cls-2" cx="3.377" cy="3.377" r="3.377" transform="translate(923.474 369.59)"/>
    <circle id="Ellipse_36" data-name="Ellipse 36" class="cls-2" cx="3.377" cy="3.377" r="3.377" transform="translate(941.871 369.59)"/>
    <circle id="Ellipse_37" data-name="Ellipse 37" class="cls-2" cx="3.377" cy="3.377" r="3.377" transform="translate(831.486 387.988)"/>
    <circle id="Ellipse_38" data-name="Ellipse 38" class="cls-2" cx="3.377" cy="3.377" r="3.377" transform="translate(849.883 387.988)"/>
    <circle id="Ellipse_39" data-name="Ellipse 39" class="cls-2" cx="3.377" cy="3.377" r="3.377" transform="translate(868.281 387.988)"/>
    <circle id="Ellipse_40" data-name="Ellipse 40" class="cls-2" cx="3.377" cy="3.377" r="3.377" transform="translate(886.679 387.988)"/>
    <circle id="Ellipse_41" data-name="Ellipse 41" class="cls-2" cx="3.377" cy="3.377" r="3.377" transform="translate(905.076 387.988)"/>
    <circle id="Ellipse_42" data-name="Ellipse 42" class="cls-2" cx="3.377" cy="3.377" r="3.377" transform="translate(923.474 387.988)"/>
    <circle id="Ellipse_43" data-name="Ellipse 43" class="cls-2" cx="3.377" cy="3.377" r="3.377" transform="translate(941.871 387.988)"/>
    <circle id="Ellipse_44" data-name="Ellipse 44" class="cls-2" cx="3.377" cy="3.377" r="3.377" transform="translate(831.486 406.386)"/>
    <circle id="Ellipse_45" data-name="Ellipse 45" class="cls-2" cx="3.377" cy="3.377" r="3.377" transform="translate(849.883 406.386)"/>
    <circle id="Ellipse_46" data-name="Ellipse 46" class="cls-2" cx="3.377" cy="3.377" r="3.377" transform="translate(868.281 406.386)"/>
    <circle id="Ellipse_47" data-name="Ellipse 47" class="cls-2" cx="3.377" cy="3.377" r="3.377" transform="translate(886.679 406.386)"/>
    <circle id="Ellipse_48" data-name="Ellipse 48" class="cls-2" cx="3.377" cy="3.377" r="3.377" transform="translate(905.076 406.386)"/>
    <circle id="Ellipse_49" data-name="Ellipse 49" class="cls-2" cx="3.377" cy="3.377" r="3.377" transform="translate(923.474 406.386)"/>
    <circle id="Ellipse_50" data-name="Ellipse 50" class="cls-2" cx="3.377" cy="3.377" r="3.377" transform="translate(941.871 406.386)"/>
    <circle id="Ellipse_51" data-name="Ellipse 51" class="cls-2" cx="3.377" cy="3.377" r="3.377" transform="translate(831.486 424.783)"/>
    <circle id="Ellipse_52" data-name="Ellipse 52" class="cls-2" cx="3.377" cy="3.377" r="3.377" transform="translate(849.883 424.783)"/>
    <circle id="Ellipse_53" data-name="Ellipse 53" class="cls-2" cx="3.377" cy="3.377" r="3.377" transform="translate(868.281 424.783)"/>
    <circle id="Ellipse_54" data-name="Ellipse 54" class="cls-2" cx="3.377" cy="3.377" r="3.377" transform="translate(886.679 424.783)"/>
    <circle id="Ellipse_55" data-name="Ellipse 55" class="cls-2" cx="3.377" cy="3.377" r="3.377" transform="translate(905.076 424.783)"/>
    <circle id="Ellipse_56" data-name="Ellipse 56" class="cls-2" cx="3.377" cy="3.377" r="3.377" transform="translate(923.474 424.783)"/>
    <circle id="Ellipse_57" data-name="Ellipse 57" class="cls-2" cx="3.377" cy="3.377" r="3.377" transform="translate(941.871 424.783)"/>
  </g>
</svg>
