<svg id="undraw_grand_slam_0q5r" xmlns="http://www.w3.org/2000/svg" xmlns:xlink="http://www.w3.org/1999/xlink" width="836.74" height="605.207" viewBox="0 0 836.74 605.207">
  <defs>
    <style>
      .cls-1 {
        fill: #6c63ff;
        opacity: 0.4;
      }

      .cls-2 {
        opacity: 0.2;
      }

      .cls-12, .cls-3 {
        opacity: 0.05;
      }

      .cls-4 {
        fill: url(#linear-gradient);
      }

      .cls-5 {
        fill: #f55f44;
      }

      .cls-6 {
        fill: #fdb797;
      }

      .cls-7 {
        opacity: 0.1;
      }

      .cls-8 {
        fill: #252a62;
      }

      .cls-9 {
        fill: #b4abab;
      }

      .cls-10 {
        fill: #535461;
      }

      .cls-11 {
        fill: #f0e4e4;
      }

      .cls-13 {
        fill: url(#linear-gradient-2);
      }

      .cls-14 {
        fill: #3ad29f;
      }

      .cls-15 {
        fill: none;
        stroke: #f0e4e4;
        stroke-miterlimit: 10;
      }
    </style>
    <linearGradient id="linear-gradient" x1="0.5" y1="1.001" x2="0.5" gradientUnits="objectBoundingBox">
      <stop offset="0" stop-color="gray" stop-opacity="0.251"/>
      <stop offset="0.54" stop-color="gray" stop-opacity="0.122"/>
      <stop offset="1" stop-color="gray" stop-opacity="0.102"/>
    </linearGradient>
    <linearGradient id="linear-gradient-2" x1="0.502" y1="1" x2="0.502" y2="0.001" xlink:href="#linear-gradient"/>
  </defs>
  <path id="Path_238" data-name="Path 238" class="cls-1" d="M884.172,102.964c-2.818,23.946-22.583,42.908-27.272,66.559a64.546,64.546,0,0,0-1.106,9.4c-.674,13.583,2.015,27.446.629,41.052-2.583,25.515-18.091,45.453-37.779,62.733-14.894,13.038-32.181,24.507-48.082,35.605C730.077,346.595,692.108,382.3,675.48,428.8c-11.083,31.007-11.931,64.7-20.068,96.611s-26.666,64.559-57.983,74.733c-33.613,10.924-70.65-7.288-105.24-.091-37.12,7.727-63.445,42.81-100.073,52.719C345.579,665.36,299.2,634.421,251.43,627.974c-22.939-3.1-46.287-.47-69.347-2.454a174.3,174.3,0,0,1-72.725-23.113c-7.576-4.447-15.234-9.909-18.757-17.984-3.03-6.977-2.568-14.932-1.636-22.484,3.485-28.03,12.3-58.5-1.568-83.134-12.8-22.727-43.8-38.984-39.2-64.642,2.773-15.439,17.924-25.083,32.029-32,29.03-14.265,59.953-25.431,85.9-44.7,18.56-13.8,34.545-33.06,41.363-54.718a72.959,72.959,0,0,0,3.371-26.833c-.955-14.318-5.909-30.393,2.727-41.855,3.742-4.97,9.477-8.023,15.242-10.356,21.742-8.788,45.893-9.3,68.5-15.538a94.489,94.489,0,0,0,22.159-9.25c13.788-7.985,24.886-19.75,27.567-35.105,1.568-9,.174-18.825,4.667-26.78,7.576-13.485,22.553-19.121,39.279-20.954,20.7-2.273,44.15,1.28,59.847,3.03l1.568.167c20.159,2.1,40.15-2.364,59.794-9.091,21.212-7.2,41.946-17.007,62.12-23.977q2.841-.985,5.667-1.886a290.149,290.149,0,0,1,45.09-10.492,294.78,294.78,0,0,1,65.15-2.515,289.026,289.026,0,0,1,32.863,4.273q4.788.909,9.56,1.947c18.5,3.962,36.9,8.8,55.771,9.091H792.5c22.507-.386,45.522-6.106,66.877.8,9.75,3.159,19.022,9.371,22.931,18.795A33.624,33.624,0,0,1,884.172,102.964Z" transform="translate(-47.731 -50.545)"/>
  <path id="Path_239" data-name="Path 239" class="cls-2" d="M906.95,192.113H887.5a25.757,25.757,0,0,0-16.924-22.727,18.181,18.181,0,1,0-17.538,0,25.757,25.757,0,0,0-16.924,22.727h-.167a25.757,25.757,0,0,0-16.878-21.969,18.181,18.181,0,1,0-26.643-19.25,25.7,25.7,0,0,0-7.447-4.235,18.181,18.181,0,1,0-17.537,0A25.757,25.757,0,0,0,750.461,170.9v21.212h-8.333V175.447a25.757,25.757,0,0,0-16.984-24.242,18.181,18.181,0,1,0-17.537,0,25.833,25.833,0,0,0-14.848,13.969,25.825,25.825,0,0,0-12.325-9.424,18.181,18.181,0,1,0-17.537,0,25.841,25.841,0,0,0-13.2,10.78v-3.2a25.757,25.757,0,0,0-16.984-24.242,18.181,18.181,0,1,0-17.537,0,25.757,25.757,0,0,0-16.984,24.242v28.787H589.1a25.825,25.825,0,0,0-14.689-13.636,18.181,18.181,0,1,0-17.537,0,25.662,25.662,0,0,0-5.121,2.538A25.757,25.757,0,0,0,534.982,160.3a18.181,18.181,0,1,0-17.537,0,25.81,25.81,0,0,0-15.909,16.969,25.757,25.757,0,0,0-10.469-7.121,18.181,18.181,0,1,0-17.537,0,25.7,25.7,0,0,0-7.636,4.394,25.833,25.833,0,0,0-15-14.242,18.181,18.181,0,1,0-17.537,0,25.757,25.757,0,0,0-16.984,24.242v7.576H370.615a94.491,94.491,0,0,1-22.159,9.2c-22.606,6.242-46.756,6.75-68.5,15.537-5.765,2.333-11.5,5.386-15.242,10.356-8.636,11.462-3.682,27.537-2.727,41.855A72.96,72.96,0,0,1,258.61,295.9H869.8c19.7-17.242,35.2-37.219,37.779-62.733C908.965,219.567,906.276,205.7,906.95,192.113Z" transform="translate(-98.857 -63.742)"/>
  <path id="Path_240" data-name="Path 240" class="cls-3" d="M816.4,565.32s.265,9.583-8.257,11.447,3.462,7.454,8.257,6.121,24.5-18.636,24.5-18.636S833.979,553.6,829.457,553.6C829.426,553.608,821.176,567.448,816.4,565.32Z" transform="translate(-231.366 -172.507)"/>
  <path id="Path_241" data-name="Path 241" class="cls-3" d="M762.586,561.69s.53,8.788-12.515,13.848c0,0-13.583,1.333-4.258,7.985s37.545-1.864,37.545-1.864-.53-8.522-3.727-15.447C779.631,566.22,764.192,565.152,762.586,561.69Z" transform="translate(-216.184 -174.469)"/>
  <path id="Path_242" data-name="Path 242" class="cls-4" d="M842.646,311.156c-4.114-4.856-12.878,13.227-12.878,13.227L797.852,331.7a10.675,10.675,0,0,1-5.2-3.53,14.742,14.742,0,0,0,13.31-7.348l-8.227-.462a6.7,6.7,0,0,1-2.439-.439c-1.576-.72-2.273-2.47-3.121-3.977a19.257,19.257,0,0,0-10.432-8.863c-2.947-1.045-6.235-1.409-8.765-3.227-1.826-1.311-3.068-3.242-4.545-4.932-7.007-8.091-18.613-10.333-29.325-11.727-1.894-.25-4.053-.409-5.477.848-.977.856-1.364,2.2-2.212,3.182-1.447,1.689-3.894,2.03-6.1,2.447a19.945,19.945,0,0,0-7.788,2.962,9.848,9.848,0,0,0-4.341,6.818c-.424,4.2,2.644,8.227,2.076,12.416-.174,1.288-.689,2.515-.758,3.788a11.894,11.894,0,0,0,.576,3.606c.924,3.553,1.636,7.25,1.008,10.863s-2.841,7.136-6.3,8.477a19.067,19.067,0,0,0,13.113-1.811,13.34,13.34,0,0,0,6.894-10.772V329.7l.462.182c.068.25.136.515.2.8l.689.2a14.653,14.653,0,0,1,0,4.78l-4.8,3.833a6.676,6.676,0,0,0,.061.758l-.061.045a5.341,5.341,0,0,0,.053.629l-9.379,5.848a37.477,37.477,0,0,0-12.878,18.356l-8.507,13.242s-5.485,5.129-8.5,5.939l-25.507,22.136s-8.833,4.81-8.8,9.613h0v.3h0v.288h0a.667.667,0,0,0,.061.273h0a.9.9,0,0,0,.083.265v.045a.689.689,0,0,0,.1.25v.053l.121.242v.061l.136.227.045.068.152.22.061.076.174.212.076.083.189.2.091.091.2.189.106.1.227.189.121.1.25.182.129.1.288.2.121.083.455.273c9.848,5.667,12.341-8.909,12.341-8.909l29.62-19.439S722.4,369.927,722.4,365.072l5.3,2.273-.091.955v.811s-.273,11.363,13.984,14.31c0,0,13.038,13.083,13.432,17.242v.3c-.227,3.182,2.841,9.416,3.788,11.318l-5.189,4.341.053.758-.053.045.2,2.7c-5.871,6.326-14.394,15.712-15.28,17.818-1.371,3.242-1.371,10.257,1.917,17.545l3.568,32.12v9.356l-1.644-.758v2.121a3.924,3.924,0,0,1-1.917-1.583s0,.1,0,.273h0c-.045,1.568-.886,9.166-12.878,13.75,0,0-7.954.758-7.75,4.045-.083,1.106.8,2.523,3.356,4.326,9.6,6.75,38.635-1.886,38.635-1.886v-.265h0s-.545-8.636-3.841-15.659c0,0-.758-.053-1.917-.167v-1.992l-1.2-.2a52.566,52.566,0,0,1,1.114-11.265,88.112,88.112,0,0,0,1.568-26.136,33.011,33.011,0,0,0,4.545,4.674l17.31,27.454,2.045,4.2c-.758.545-1.515,1.023-2.136,1.409l3.477,3.22a3.242,3.242,0,0,1-2.424,0s.273,9.719-8.5,11.606c-3.5.758-3.636,2.106-2.235,3.379,1.864,2.023,7.9,3.947,11.007,3.1,4.939-1.348,25.234-18.893,25.234-18.893a52.27,52.27,0,0,0-6.1-7.462c-1.985-1.985-4.159-3.6-5.97-3.6,0,0-.417.689-1.121,1.742l-2.167-2.008-.22.2c-.182-.6-.348-1.2-.492-1.8,0,0-4.2-19.265-17.083-33.855,0,0-2.538-2.1,1.386-9.03,0,0,6.348-7.53,11.886-15.7,8.053,1.568,16.34.924,22.628-4.879l-.083-.5.356-.311-2.742-17.007s1.235-16.06-18.787-29.022c0,0-10.833-13.363-14.674-30.37h-.22l.22-2.947c2.47,1.886,28.787-1.621,28.787-1.621l34.848-14.575c1.977-1.083,7.485-8.591,7.462-14.03A5.447,5.447,0,0,0,842.646,311.156Z" transform="translate(-194.436 -107.877)"/>
  <path id="Path_243" data-name="Path 243" class="cls-5" d="M809.945,329.065a10.356,10.356,0,0,0,7.47,3.932,23.979,23.979,0,0,1-7.659,4.788c-8.2,3.22-18.121,2.273-25.181-3.091-1.659-1.265-3.25-2.773-5.3-3.265-1.758-.432-3.606,0-5.424-.1a10.765,10.765,0,0,1-9.788-8.045c-.523-2.22-.311-4.545-.689-6.818a10.594,10.594,0,0,0-.25-1.144c-1.061-3.788-6.015-7.863-10.189-6.757-3.939,1.038-5.962,7.235-5.879,10.78.083,3.9,1.97,7.629,1.848,11.53a13.125,13.125,0,0,1-6.7,10.606,18.257,18.257,0,0,1-12.7,1.773c3.364-1.326,5.507-4.8,6.121-8.333s-.083-7.212-.977-10.712a11.91,11.91,0,0,1-.561-3.561c.068-1.28.568-2.492.758-3.788.553-4.129-2.424-8.1-2.015-12.242a9.689,9.689,0,0,1,4.212-6.7,19.18,19.18,0,0,1,7.576-2.924c2.136-.409,4.545-.758,5.924-2.417.826-.97,1.2-2.273,2.144-3.144,1.379-1.235,3.477-1.076,5.3-.833,10.4,1.379,21.659,3.583,28.469,11.568,1.424,1.667,2.629,3.576,4.4,4.864,2.454,1.8,5.644,2.151,8.507,3.182a18.78,18.78,0,0,1,10.113,8.765c.758,1.515,1.515,3.212,3.03,3.924a6.417,6.417,0,0,0,2.371.439l7.985.455A14.265,14.265,0,0,1,809.945,329.065Z" transform="translate(-213.021 -108.218)"/>
  <path id="Path_244" data-name="Path 244" class="cls-6" d="M782.54,336.529s3.864.4,11.583-1.462,15.447,3.992,15.447,3.992l16.242,1.333,33.014-7.72s8.523-17.84,12.515-13.045-3.727,15.977-6.121,17.31L831.372,351.3s-25.56,3.462-27.954,1.6l-.53,7.189-12.78-6.121-5.568-13.045Z" transform="translate(-225.881 -115.584)"/>
  <path id="Path_245" data-name="Path 245" class="cls-3" d="M865.212,338.04l-33.817,14.394s-25.56,3.462-27.954,1.6l-.53,7.189-12.78-6.121-5.591-13.045-1.75-3.841h-.25l2,4.394,5.591,13.045,12.78,6.121.53-7.189c2.394,1.864,27.954-1.6,27.954-1.6l33.817-14.394c1.955-1.083,7.432-8.7,7.242-14.083C872.28,329.828,867.106,337,865.212,338.04Z" transform="translate(-225.88 -116.966)"/>
  <path id="Path_246" data-name="Path 246" class="cls-6" d="M729.751,357.13l-10.916,6.924A36.9,36.9,0,0,0,706.32,382.16L698.063,395.2s-5.3,5.06-8.257,5.856l-24.765,21.833s-14.909,8.257-5.3,13.848,11.985-8.788,11.985-8.788l28.787-19.174s23.7-21.833,23.7-26.628l8.523,3.727Z" transform="translate(-195.326 -124.874)"/>
  <path id="Path_247" data-name="Path 247" class="cls-3" d="M724.15,389.47c0,4.8-23.7,26.628-23.7,26.628l-28.787,19.174s-2.394,14.394-11.984,8.788c-2.2-1.28-3.106-2.7-3.2-4.129-.106,1.606.758,3.22,3.2,4.667,9.583,5.591,11.984-8.788,11.984-8.788l28.787-19.174s23.7-21.833,23.7-26.628l8.523,3.727-.053-.561Z" transform="translate(-195.315 -132.715)"/>
  <path id="Path_248" data-name="Path 248" class="cls-6" d="M792.6,460.563s-8.333,26.416-8.129,29.87,3.167,9.7,9.159,14.8l16.81,27.083,5.174,10.8,10.174-2.8a60,60,0,0,1-5.257-12.833s-4.083-19.007-16.583-33.393c0,0-2.462-2.068,1.341-8.909,0,0,18.727-22.545,19.356-31.7Z" transform="translate(-226.347 -148.234)"/>
  <path id="Path_249" data-name="Path 249" class="cls-3" d="M792.6,460.563s-8.333,26.416-8.129,29.87,3.167,9.7,9.159,14.8l16.81,27.083,5.174,10.8,10.174-2.8a60,60,0,0,1-5.257-12.833s-4.083-19.007-16.583-33.393c0,0-2.462-2.068,1.341-8.909,0,0,18.727-22.545,19.356-31.7Z" transform="translate(-226.347 -148.234)"/>
  <path id="Path_250" data-name="Path 250" class="cls-7" d="M786.87,454.14s-18.939,20.234-20.234,23.431-1.333,10.121,1.864,17.31l3.462,31.689v11.985l10.386,1.841a58.8,58.8,0,0,1,.8-13.848s4.545-18.939-.53-37.279c0,0-1.333-2.932,5.061-7.454,0,0,26.628-12.25,31.151-20.234Z" transform="translate(-221.825 -148.394)"/>
  <path id="Path_251" data-name="Path 251" class="cls-6" d="M786.52,454.14s-18.939,20.234-20.234,23.431-1.333,10.121,1.864,17.31l3.462,31.689v11.985L782,540.4a58.8,58.8,0,0,1,.8-13.848s4.545-18.939-.53-37.279c0,0-1.333-2.932,5.06-7.454,0,0,26.628-12.25,31.151-20.234Z" transform="translate(-221.74 -148.394)"/>
  <path id="Path_252" data-name="Path 252" class="cls-3" d="M791.7,454.14l-.144.151,31.295,7.318c-4.545,7.985-31.151,20.234-31.151,20.234-6.394,4.545-5.061,7.454-5.061,7.454,5.061,18.371.53,37.279.53,37.279a58.093,58.093,0,0,0-.811,13.7l.811.144a58.8,58.8,0,0,1,.8-13.848s4.545-18.939-.53-37.279c0,0-1.333-2.932,5.061-7.454,0,0,26.628-12.25,31.151-20.234Z" transform="translate(-226.784 -148.394)"/>
  <path id="Path_253" data-name="Path 253" class="cls-6" d="M755,336.838s3.727,5.856,0,13.583l3.727,19.174,15.447-2.129,7.454-8.522-5.894-20.522s-4.8,1.864-5.3-11.182Z" transform="translate(-219.204 -117.628)"/>
  <path id="Path_254" data-name="Path 254" class="cls-7" d="M750.73,353.842s1.068,14.113,2.394,17.31l-1.068,11.182s-.265,11.182,13.583,14.113c0,0,13.31,13.583,13.045,17.31s3.992,11.712,3.992,11.712l-5.3,4.545.265,3.727,3.727-3.727s32.219,23.7,49.241,7.719l-2.659-16.772s2.273-14.242-17.174-27.022c0,0-11.583-14.78-15.31-31.552,0,0-10.651-1.068-13.31-5.06l-5.3-15.977-4.394.932,4.129,17.7s-4.8,15.977-18.106,9.091l-3.03-18.939Z" transform="translate(-218.168 -121.049)"/>
  <path id="Path_255" data-name="Path 255" class="cls-8" d="M750.73,352.782s1.068,14.113,2.394,17.31l-1.068,11.182s-.265,11.182,13.583,14.113c0,0,13.31,13.583,13.045,17.31s3.992,11.712,3.992,11.712l-5.3,4.545.265,3.727,3.727-3.727s32.219,23.7,49.241,7.72L827.948,419.9s1.2-15.841-18.242-28.621c0,0-10.515-13.181-14.242-29.954,0,0-10.651-1.068-13.31-5.06l-5.3-15.977-4.394.932,4.129,17.7s-4.8,15.977-18.106,9.091l-3.03-18.939Z" transform="translate(-218.168 -120.792)"/>
  <path id="Path_256" data-name="Path 256" class="cls-9" d="M566.48,440.67" transform="translate(-173.498 -145.128)"/>
  <rect id="Rectangle_10" data-name="Rectangle 10" class="cls-9" width="42.673" height="0.265" transform="translate(391.156 298.958)"/>
  <rect id="Rectangle_11" data-name="Rectangle 11" class="cls-9" width="40.544" height="0.265" transform="translate(392.224 297.095)"/>
  <rect id="Rectangle_12" data-name="Rectangle 12" class="cls-9" width="37.082" height="0.265" transform="translate(393.02 295.231)"/>
  <rect id="Rectangle_13" data-name="Rectangle 13" class="cls-9" width="32.817" height="0.265" transform="translate(394.353 293.368)"/>
  <rect id="Rectangle_14" data-name="Rectangle 14" class="cls-9" width="28.03" height="0.265" transform="translate(396.216 291.504)"/>
  <rect id="Rectangle_15" data-name="Rectangle 15" class="cls-9" width="22.439" height="0.265" transform="translate(398.61 289.64)"/>
  <rect id="Rectangle_16" data-name="Rectangle 16" class="cls-9" width="13.916" height="0.265" transform="translate(402.338 287.777)"/>
  <rect id="Rectangle_17" data-name="Rectangle 17" class="cls-9" width="45.067" height="0.265" transform="translate(390.353 301.087)"/>
  <rect id="Rectangle_18" data-name="Rectangle 18" class="cls-9" width="45.87" height="0.265" transform="translate(390.353 303.216)"/>
  <rect id="Rectangle_19" data-name="Rectangle 19" class="cls-9" width="47.196" height="0.265" transform="translate(389.558 305.345)"/>
  <rect id="Rectangle_20" data-name="Rectangle 20" class="cls-9" width="47.817" height="0.265" transform="translate(389.558 307.473)"/>
  <rect id="Rectangle_21" data-name="Rectangle 21" class="cls-9" width="47.552" height="0.265" transform="translate(389.558 309.61)"/>
  <rect id="Rectangle_22" data-name="Rectangle 22" class="cls-9" width="46.219" height="0.265" transform="translate(390.088 311.738)"/>
  <rect id="Rectangle_23" data-name="Rectangle 23" class="cls-9" width="43.817" height="0.265" transform="translate(391.156 313.867)"/>
  <rect id="Rectangle_24" data-name="Rectangle 24" class="cls-9" width="41.954" height="0.265" transform="translate(391.156 315.996)"/>
  <rect id="Rectangle_25" data-name="Rectangle 25" class="cls-9" width="37.696" height="0.265" transform="translate(393.02 318.125)"/>
  <rect id="Rectangle_26" data-name="Rectangle 26" class="cls-9" width="32.901" height="0.265" transform="translate(394.883 320.253)"/>
  <rect id="Rectangle_27" data-name="Rectangle 27" class="cls-9" width="27.583" height="0.265" transform="translate(397.012 322.39)"/>
  <rect id="Rectangle_28" data-name="Rectangle 28" class="cls-9" width="19.59" height="0.265" transform="translate(401.277 324.518)"/>
  <rect id="Rectangle_29" data-name="Rectangle 29" class="cls-9" width="0.265" height="28.249" transform="translate(395.126 292.61)"/>
  <rect id="Rectangle_30" data-name="Rectangle 30" class="cls-9" width="0.265" height="24.257" transform="translate(393.527 294.739)"/>
  <rect id="Rectangle_31" data-name="Rectangle 31" class="cls-9" width="0.265" height="19.734" transform="translate(391.929 297.133)"/>
  <rect id="Rectangle_32" data-name="Rectangle 32" class="cls-9" width="0.265" height="12.545" transform="translate(390.33 300.86)"/>
  <rect id="Rectangle_33" data-name="Rectangle 33" class="cls-9" width="0.265" height="31.977" transform="translate(397.254 290.747)"/>
  <rect id="Rectangle_34" data-name="Rectangle 34" class="cls-9" width="0.265" height="34.378" transform="translate(399.383 289.413)"/>
  <rect id="Rectangle_35" data-name="Rectangle 35" class="cls-9" width="0.265" height="36.242" transform="translate(401.512 288.345)"/>
  <rect id="Rectangle_36" data-name="Rectangle 36" class="cls-9" width="0.265" height="37.84" transform="translate(403.648 287.55)"/>
  <rect id="Rectangle_37" data-name="Rectangle 37" class="cls-9" width="0.265" height="39.438" transform="translate(405.777 286.754)"/>
  <rect id="Rectangle_38" data-name="Rectangle 38" class="cls-9" width="0.265" height="39.438" transform="translate(407.906 286.754)"/>
  <rect id="Rectangle_39" data-name="Rectangle 39" class="cls-9" width="0.265" height="39.438" transform="translate(410.034 286.754)"/>
  <rect id="Rectangle_40" data-name="Rectangle 40" class="cls-9" width="0.265" height="39.438" transform="translate(412.163 286.754)"/>
  <rect id="Rectangle_41" data-name="Rectangle 41" class="cls-9" width="0.265" height="38.635" transform="translate(414.299 287.55)"/>
  <rect id="Rectangle_42" data-name="Rectangle 42" class="cls-9" width="0.265" height="37.84" transform="translate(416.428 288.08)"/>
  <rect id="Rectangle_43" data-name="Rectangle 43" class="cls-9" width="0.265" height="36.772" transform="translate(418.557 288.618)"/>
  <rect id="Rectangle_44" data-name="Rectangle 44" class="cls-9" width="0.265" height="34.643" transform="translate(420.686 289.678)"/>
  <rect id="Rectangle_45" data-name="Rectangle 45" class="cls-9" width="0.265" height="32.78" transform="translate(422.814 290.747)"/>
  <rect id="Rectangle_46" data-name="Rectangle 46" class="cls-9" width="0.265" height="29.848" transform="translate(424.943 292.61)"/>
  <rect id="Rectangle_47" data-name="Rectangle 47" class="cls-9" width="0.265" height="27.454" transform="translate(427.079 293.406)"/>
  <rect id="Rectangle_48" data-name="Rectangle 48" class="cls-9" width="0.265" height="24.522" transform="translate(429.208 295.004)"/>
  <rect id="Rectangle_49" data-name="Rectangle 49" class="cls-9" width="0.265" height="21.06" transform="translate(431.337 296.868)"/>
  <rect id="Rectangle_50" data-name="Rectangle 50" class="cls-9" width="0.265" height="17.068" transform="translate(433.466 298.466)"/>
  <rect id="Rectangle_51" data-name="Rectangle 51" class="cls-9" width="0.265" height="11.212" transform="translate(435.594 301.928)"/>
  <path id="Path_257" data-name="Path 257" class="cls-10" d="M582.766,469.14a25,25,0,0,1-7.015-.962,19.413,19.413,0,0,1-12.333-9.735,20.735,20.735,0,0,1-1.515-14.166c2.136-9.091,10.371-17.84,23.409-15.5l.439.083a32.483,32.483,0,0,1,12.659,5.409c21.636,15.227,26.515,13.189,26.515,13.166l.8-.462v3.379l-.583-.061c-7.106-.758-18.181,7.379-24.2,12.272a28.552,28.552,0,0,1-15.8,6.477Q583.933,469.14,582.766,469.14Zm-1.629-39.681c-10.06,0-16.424,7.394-18.219,15.06-1.985,8.477,1.273,19.181,13.129,22.628a24.938,24.938,0,0,0,9,.826,27.5,27.5,0,0,0,15.212-6.242c5.954-4.871,16.916-12.878,24.393-12.545v-.636c-2.1.242-8.757-.682-26.878-13.439a31.423,31.423,0,0,0-12.25-5.235l-.432-.083a22.44,22.44,0,0,0-3.954-.326Z" transform="translate(-172.24 -142.152)"/>
  <path id="Path_258" data-name="Path 258" class="cls-10" d="M595.79,401.13h22.886a2.659,2.659,0,0,1,2.659,2.659h0a2.659,2.659,0,0,1-2.659,2.659H595.79V401.13Z" transform="translate(-144.439 -97.247)"/>
  <rect id="Rectangle_52" data-name="Rectangle 52" class="cls-11" width="3.197" height="5.326" transform="translate(451.351 303.883)"/>
  <path id="Path_259" data-name="Path 259" class="cls-10" d="M615.8,463.943l-.621-.864c4.545-3.265,6.818-6.818,6.818-10.606,0-6.462-6.757-11.485-6.818-11.53l.629-.864c.3.22,7.28,5.379,7.265,12.394C623.074,456.617,620.634,460.473,615.8,463.943Z" transform="translate(-185.305 -144.985)"/>
  <path id="Path_260" data-name="Path 260" class="cls-7" d="M771.333,336.7c-.8-1.651-1.462-4.356-1.636-8.742l-15.447,9.583a11.906,11.906,0,0,1,1.326,3.561A14.909,14.909,0,0,0,771.333,336.7Z" transform="translate(-219.022 -117.802)"/>
  <ellipse id="Ellipse_71" data-name="Ellipse 71" class="cls-6" cx="14.909" cy="14.909" rx="14.909" ry="14.909" transform="translate(526.706 193.65)"/>
  <path id="Path_261" data-name="Path 261" class="cls-7" d="M757.159,316.4c1.515.606,2.523,2.03,3.962,2.765,2.068,1.053,4.545.508,6.863.939,2.6.492,4.977,2.273,7.576,2.03,3.121-.273,5.4-3.545,5.3-6.674s-2.159-5.932-4.7-7.75a30.857,30.857,0,0,0-8.553-3.788c-3.788-1.25-7.879-2.508-11.8-1.606-3.651.841-13.485,5.674-12.977,10.25C743.66,319.918,753.356,314.88,757.159,316.4Z" transform="translate(-216.249 -111.51)"/>
  <path id="Path_262" data-name="Path 262" class="cls-5" d="M757.159,315.705c1.515.606,2.523,2.03,3.962,2.765,2.068,1.053,4.545.508,6.863.939,2.6.492,4.977,2.273,7.576,2.03,3.121-.273,5.4-3.545,5.3-6.674s-2.159-5.932-4.7-7.75a30.858,30.858,0,0,0-8.553-3.788c-3.788-1.25-7.879-2.508-11.8-1.606-3.651.841-13.485,5.674-12.977,10.25C743.66,319.22,753.356,314.175,757.159,315.705Z" transform="translate(-216.249 -111.343)"/>
  <path id="Path_263" data-name="Path 263" class="cls-7" d="M791,437.09s.8,6.659,2.932,8.788" transform="translate(-227.932 -144.26)"/>
  <path id="Path_264" data-name="Path 264" class="cls-7" d="M826.4,408.62a8.72,8.72,0,0,1-1.333,5.856" transform="translate(-236.192 -137.358)"/>
  <path id="Path_265" data-name="Path 265" class="cls-7" d="M807.188,386.13a20.189,20.189,0,0,1-8.788,7.985" transform="translate(-229.726 -131.905)"/>
  <g id="Group_16" data-name="Group 16" class="cls-12" transform="translate(535.758 219.475)">
    <path id="Path_266" data-name="Path 266" d="M757.882,371.554c4.659,2.424,8.273,2.038,11.007.523-2.454.758-5.47.591-9.144-1.318l-3.03-18.939-1.765,1.432Z" transform="translate(-754.95 -343.063)"/>
    <path id="Path_267" data-name="Path 267" d="M782.265,341.063l5.3,15.977c2.659,3.992,13.31,5.061,13.31,5.061,3.727,16.772,14.242,29.954,14.242,29.954,19.439,12.78,18.242,28.621,18.242,28.621l2.659,16.772a19.7,19.7,0,0,1-4.826,3.333,19.634,19.634,0,0,0,6.689-4.136l-2.644-16.772s1.2-15.841-18.242-28.621c0,0-10.515-13.182-14.242-29.954,0,0-10.651-1.068-13.31-5.061l-5.3-15.977-4.394.932.091.386Z" transform="translate(-760.963 -340.26)"/>
    <path id="Path_268" data-name="Path 268" d="M788.382,458.36l-1.932,1.932.068.992L789,458.8Z" transform="translate(-762.587 -368.892)"/>
  </g>
  <path id="Path_269" data-name="Path 269" class="cls-7" d="M803.63,444.82s11.182-7.72,20.234-7.72" transform="translate(-230.994 -144.263)"/>
  <path id="Path_270" data-name="Path 270" class="cls-7" d="M773.4,408.079s6.394-3.992,8.257-7.189" transform="translate(-223.665 -135.484)"/>
  <path id="Path_271" data-name="Path 271" class="cls-6" d="M665.9,448s-3.2,3.992-1.6,5.3,5.591-4.545,5.591-4.545Z" transform="translate(-197.105 -146.905)"/>
  <path id="Path_272" data-name="Path 272" class="cls-13" d="M512.187,454.488a6.75,6.75,0,0,0-6.75,6.75,6.073,6.073,0,0,0,0,.667,1.494,1.494,0,0,0,.045.364v.1h0a6.69,6.69,0,0,0,2.273,3.992l.22.182a6.75,6.75,0,1,0,4.151-12.06Z" transform="translate(-158.697 -148.476)"/>
  <path id="Path_273" data-name="Path 273" class="cls-14" d="M508.461,466.336a6.3,6.3,0,1,0-2.424-4.954,5.624,5.624,0,0,0,0,.621,1.6,1.6,0,0,0,.038.341v.091h0a6.249,6.249,0,0,0,2.129,3.727Z" transform="translate(-158.842 -148.621)"/>
  <path id="Path_274" data-name="Path 274" class="cls-11" d="M508.486,467.064h.22c.083-.879,2.53-2.273,4.545-3.4,2.114-1.2,3.424-1.977,3.636-2.629.28-.833-.553-1.811-1.447-2.356a2.89,2.89,0,0,0-3.651.106,33.094,33.094,0,0,1-5.659,3.924l.038.341v.091h0a33.29,33.29,0,0,0,5.9-4.091,2.424,2.424,0,0,1,3.1,0c.909.606,1.417,1.341,1.258,1.833s-1.909,1.515-3.439,2.379c-2.174,1.25-4.424,2.523-4.7,3.606Z" transform="translate(-158.867 -149.349)"/>
  <path id="Path_275" data-name="Path 275" class="cls-11" d="M829.521,553.26s-6.818,6.394-10.871,8.788l3.682,3.462,11.734-1.606V557.51Z" transform="translate(-234.635 -172.425)"/>
  <path id="Path_276" data-name="Path 276" class="cls-11" d="M726.124,511.508l-2.394-1.068v6.924l13.31,2.129v-6.121Z" transform="translate(-175.457 -123.749)"/>
  <path id="Path_277" data-name="Path 277" class="cls-3" d="M762.586,561s.53,8.788-12.515,13.848c0,0-13.583,1.333-4.258,7.985s37.545-1.864,37.545-1.864-.53-8.523-3.727-15.447C779.631,565.545,764.192,564.492,762.586,561Z" transform="translate(-216.184 -174.301)"/>
  <path id="Path_278" data-name="Path 278" class="cls-11" d="M762.586,562s.53,8.788-12.515,13.848c0,0-13.583,1.333-4.258,7.985s37.545-1.864,37.545-1.864-.53-8.523-3.727-15.447C779.631,566.545,764.192,565.492,762.586,562Z" transform="translate(-216.184 -174.544)"/>
  <path id="Path_279" data-name="Path 279" class="cls-3" d="M816.724,564.682s.265,9.583-8.257,11.447,3.462,7.454,8.257,6.121,24.5-18.643,24.5-18.643S834.3,553,829.776,553C829.776,553,821.519,566.818,816.724,564.682Z" transform="translate(-231.444 -172.362)"/>
  <path id="Path_280" data-name="Path 280" class="cls-11" d="M816.724,565.682s.265,9.583-8.257,11.447,3.462,7.454,8.257,6.121,24.5-18.643,24.5-18.643S834.3,554,829.776,554C829.776,554,821.519,567.818,816.724,565.682Z" transform="translate(-231.444 -172.604)"/>
  <path id="Path_281" data-name="Path 281" class="cls-15" d="M231.873,453.46l37.863,76.9,37.87,76.892H156.14L194,530.36Z" transform="translate(-37.848 -109.934)"/>
  <path id="Path_282" data-name="Path 282" class="cls-15" d="M98.11,453.46l37.863,76.9,37.87,76.892H98.11Z" transform="translate(-23.78 -109.934)"/>
  <path id="Path_283" data-name="Path 283" class="cls-15" d="M167.715,453.46l37.863,76.9,37.87,76.892H167.715l-60.6-5.3,4.182-33.908,18.553-37.681Z" transform="translate(-25.962 -109.934)"/>
  <path id="Path_284" data-name="Path 284" class="cls-15" d="M279.873,453.46l37.863,76.9,37.87,76.892H204.14L242,530.36Z" transform="translate(-49.486 -109.934)"/>
  <path id="Path_285" data-name="Path 285" class="cls-15" d="M372.873,453.46l37.863,76.9,37.87,76.892H297.14L335,530.36Z" transform="translate(-72.033 -109.934)"/>
  <path id="Path_286" data-name="Path 286" class="cls-15" d="M472.873,453.46l37.863,76.9,37.87,76.892H397.14L435,530.36Z" transform="translate(-96.277 -109.934)"/>
  <path id="Path_287" data-name="Path 287" class="cls-15" d="M572.873,453.46l37.863,76.9,37.87,76.892H497.14L535,530.36Z" transform="translate(-120.522 -109.934)"/>
  <path id="Path_288" data-name="Path 288" class="cls-15" d="M674.873,453.46l37.863,76.9,37.87,76.892H599.14L637,530.36Z" transform="translate(-145.251 -109.934)"/>
  <path id="Path_289" data-name="Path 289" class="cls-15" d="M775.873,453.46l37.863,76.9,37.87,76.892H700.14L738,530.36Z" transform="translate(-169.737 -109.934)"/>
  <path id="Path_290" data-name="Path 290" class="cls-15" d="M869.873,453.46l37.863,76.9,37.87,76.892H794.14L832,530.36Z" transform="translate(-192.527 -109.934)"/>
  <path id="Path_291" data-name="Path 291" class="cls-15" d="M1021.29,630.885H979.14L1017,553.993l1.508-3.053Z" transform="translate(-237.379 -133.568)"/>
  <path id="Path_292" data-name="Path 292" class="cls-15" d="M929.873,453.46l37.863,76.9,37.87,76.892H854.14L892,530.36Z" transform="translate(-207.074 -109.934)"/>
  <path id="Path_293" data-name="Path 293" class="cls-15" d="M958.873,453.46l37.863,76.9,8.348,16.939v59.953H883.14L921,530.36Z" transform="translate(-214.104 -109.934)"/>
  <path id="Path_294" data-name="Path 294" class="cls-15" d="M991.873,453.46V607.252H916.14L954,530.36Z" transform="translate(-222.105 -109.934)"/>
  <path id="Path_295" data-name="Path 295" class="cls-15" d="M428.873,453.46l37.863,76.9,37.87,76.892H353.14L391,530.36Z" transform="translate(-85.61 -109.934)"/>
  <path id="Path_296" data-name="Path 296" class="cls-15" d="M625.873,453.46l37.863,76.9,37.87,76.892H550.14L588,530.36Z" transform="translate(-133.371 -109.934)"/>
  <path id="Path_297" data-name="Path 297" class="cls-15" d="M822.873,453.46l37.863,76.9,37.87,76.892H747.14L785,530.36Z" transform="translate(-181.132 -109.934)"/>
  <path id="Path_298" data-name="Path 298" class="cls-15" d="M1019.873,453.46l3.356,6.826-4.871,70.453,1.515,76.513H944.14L982,530.36Z" transform="translate(-228.893 -109.934)"/>
  <path id="Path_299" data-name="Path 299" class="cls-15" d="M829.873,608.252,792,531.36l-37.863-76.9H905.606l-37.87,76.9Z" transform="translate(-182.829 -110.177)"/>
  <path id="Path_300" data-name="Path 300" class="cls-15" d="M624.873,608.252,587,531.36l-37.863-76.9H700.606l-37.87,76.9Z" transform="translate(-133.129 -110.177)"/>
  <path id="Path_301" data-name="Path 301" class="cls-15" d="M419.873,608.252,382,531.36l-37.863-76.9H495.606l-37.87,76.9Z" transform="translate(-83.428 -110.177)"/>
  <path id="Path_302" data-name="Path 302" class="cls-15" d="M214.873,608.252,177,531.36l-37.863-76.9H290.606l-37.87,76.9Z" transform="translate(-33.727 -110.177)"/>
  <rect id="Rectangle_53" data-name="Rectangle 53" class="cls-11" width="689.377" height="13.636" transform="translate(94.784 336.715)"/>
  <rect id="Rectangle_54" data-name="Rectangle 54" class="cls-11" width="689.377" height="13.636" transform="translate(94.784 492.014)"/>
  <rect id="Rectangle_55" data-name="Rectangle 55" class="cls-10" width="27.272" height="191.662" transform="translate(72.815 325.352)"/>
  <rect id="Rectangle_56" data-name="Rectangle 56" class="cls-10" width="27.272" height="191.662" transform="translate(770.525 325.352)"/>
</svg>
