<svg xmlns="http://www.w3.org/2000/svg" width="912.209" height="492.24" viewBox="0 0 912.209 492.24">
  <defs>
    <style>
      .cls-1, .cls-2, .cls-3, .cls-6 {
        fill: #6c63ff;
      }

      .cls-1 {
        opacity: 0.6;
      }

      .cls-2 {
        opacity: 0.4;
      }

      .cls-3 {
        opacity: 0.3;
      }

      .cls-4 {
        fill: #2f2e41;
      }

      .cls-5 {
        fill: #ffb8b8;
      }

      .cls-7 {
        opacity: 0.1;
      }

      .cls-8 {
        fill: #9f616a;
      }
    </style>
  </defs>
  <g id="Group_15" data-name="Group 15" transform="translate(-840 -161)">
    <path id="Path_203" data-name="Path 203" class="cls-1" d="M1123.49,702.88c0-29.443-14.94-53.312-33.37-53.312-11.584,0-21.786,9.433-27.769,23.749a16.74,16.74,0,0,0-6.377-1.28c-5.578,0-10.736,2.858-14.942,7.7-5.394-17.85-16.831-30.165-30.068-30.165-12.377,0-23.173,10.774-28.933,26.764a18.229,18.229,0,0,0-11.421-4.295c-14.144,0-25.609,18.317-25.609,40.913a59.632,59.632,0,0,0,4.035,22.031h167.726A75.847,75.847,0,0,0,1123.49,702.88Z" transform="translate(628.719 -86.031)"/>
    <path id="Path_204" data-name="Path 204" class="cls-2" d="M860.928,356.165c-23.89-56.849-70.642-105.346-127.121-113.251-14.933-2.09-30.525-1.252-44.38,5.223-18.187,8.5-31.591,25.652-45.138,41.476a560.928,560.928,0,0,1-95.659,88.648c-17.214,12.536-35.677,24.233-56.115,27.441-40.977,6.431-81.509-24.308-100.2-64.936-11.674-25.379-17.068-55.176-26.505-81.574-10.868-.023-23.817-.018-37.748.052-38.507.2-69.85.821-69.85.821s37.256-54.286,69.71-34.174a346.4,346.4,0,0,0,31.217,16.995c-5.671-12-12.825-22.8-22.667-31.48-19.406-17.119-45.689-21.92-70.536-20.645-26.092,1.339-52.424,9.023-73.626,25.805-37.77,29.9-53.367,82.52-66.716,131.555l32.267,17.794c13.84-13.163,34.079-26.183,52.734-14.622,32.454,20.113,69.736,33.467,69.736,33.467s-31.089-.309-69.6-.114c-6.467.033-12.725.078-18.673.13L550.3,582.331c118.158,1.831,207.25-5.2,319.527,0,5.856.271,19.026-33.494,19.07-42.38C889.211,477.323,884.818,413.014,860.928,356.165ZM746.2,373.2c-38.507.2-69.85.821-69.85.821s37.256-54.286,69.71-34.174,69.736,33.467,69.736,33.467-31.09-.309-69.6-.114Z" transform="translate(774.446 2.686)"/>
    <path id="Path_205" data-name="Path 205" class="cls-3" d="M977.353,589.482c0-21.408-13.255-38.763-29.605-38.763-10.277,0-19.328,6.859-24.636,17.268a17.724,17.724,0,0,0-5.658-.93,19.275,19.275,0,0,0-13.256,5.6c-4.785-12.979-14.932-21.933-26.676-21.933-10.981,0-20.558,7.834-25.669,19.46a18.4,18.4,0,0,0-10.132-3.123c-12.548,0-22.72,13.319-22.72,29.748a36.548,36.548,0,0,0,3.58,16.018h148.8a46.865,46.865,0,0,0,5.971-23.341Z" transform="translate(639.386 -65.397)"/>
    <path id="Path_206" data-name="Path 206" class="cls-4" d="M919.152,591.814H82v-4.577H918.313Z" transform="translate(833.058 61.426)"/>
    <path id="Path_207" data-name="Path 207" class="cls-4" d="M837.152,467.814H0v-4.577H836.313Z" transform="translate(840 82.452)"/>
    <path id="Path_208" data-name="Path 208" class="cls-5" d="M483.63,433.445s5.753-42.191,15.342-30.684,0,28.767,0,28.767l-7.671,9.589-7.671-5.753Z" transform="translate(713.578 -37.434)"/>
    <path id="Path_209" data-name="Path 209" class="cls-6" d="M457.956,449.493s19.178-21.1,23.013-17.26,15.342,5.753,13.424,13.424-42.191,32.6-42.191,32.6Z" transform="translate(717.824 -43.189)"/>
    <path id="Path_210" data-name="Path 210" class="cls-7" d="M457.956,449.493s19.178-21.1,23.013-17.26,15.342,5.753,13.424,13.424-42.191,32.6-42.191,32.6Z" transform="translate(717.824 -43.189)"/>
    <path id="Path_211" data-name="Path 211" class="cls-5" d="M339.053,449.038V464.38s-1.918,34.52,9.589,32.6S354.4,466.3,354.4,466.3l-1.918-17.26Z" transform="translate(736.322 -46.325)"/>
    <path id="Path_212" data-name="Path 212" class="cls-5" d="M337.012,570.557S319.752,597.406,314,599.324s-36.438,19.178-40.273,36.438l-26.849,34.52,13.424,17.26s61.369-65.2,78.629-70.958,34.52-34.52,34.52-34.52Z" transform="translate(749.027 -79.342)"/>
    <path id="Path_213" data-name="Path 213" class="cls-5" d="M488.251,522.369s36.438,5.753,30.684,28.767-61.368,70.957-61.368,70.957L455.65,633.6l-21.1,3.835-9.589-9.589,1.918-5.753S449.9,601,451.814,593.326s23.013-38.356,32.6-40.273l-13.424-7.671Z" transform="translate(720.568 -64.63)"/>
    <path id="Path_214" data-name="Path 214" class="cls-4" d="M251.033,678.6s7.671-11.507-3.836-9.589-19.178,3.836-19.178,11.507,9.589,61.369,21.1,57.533,1.918-21.1,1.918-21.1,5.753-15.342,9.589-17.26,3.836-11.507,0-11.507S249.116,682.434,251.033,678.6Z" transform="translate(765.775 -87.659)"/>
    <path id="Path_215" data-name="Path 215" class="cls-4" d="M429.8,633.018s0-9.589-7.671,0-11.507,17.26-3.836,23.013,34.52,19.178,34.52,19.178,28.767,5.753,24.931-7.671c0,0-19.178-9.589-19.178-17.26s0-21.1-5.753-17.26S429.8,638.772,429.8,633.018Z" transform="translate(723.252 -84.269)"/>
    <path id="Path_216" data-name="Path 216" class="cls-4" d="M386.675,476.275s-26.849,3.836-24.931,42.191c0,0-34.52,34.52-24.931,46.027s30.684,32.6,38.356,26.849,30.684-49.862,30.684-49.862,53.7,19.178,63.287,9.589,19.178-32.6,19.178-32.6l-47.944-24.931Z" transform="translate(733.688 -55.88)"/>
    <circle id="Ellipse_63" data-name="Ellipse 63" class="cls-5" cx="23.013" cy="23.013" r="23.013" transform="translate(1166.39 285.52)"/>
    <path id="Path_217" data-name="Path 217" class="cls-5" d="M452.67,333.8s-13.424,21.1-17.26,23.013,26.849,21.1,26.849,21.1,0-24.931,9.589-30.684Z" transform="translate(720.703 -25.796)"/>
    <path id="Path_218" data-name="Path 218" class="cls-6" d="M446.48,356.577s-30.684-9.589-36.438,5.753-19.178,44.109-17.26,63.287,5.753,15.342,0,21.1-9.589,1.918-7.671,9.589,3.836,7.671,1.918,11.507,23.013,17.26,44.109,19.178l21.1,1.918s0-34.52,3.836-42.191,11.507-23.013,11.507-28.767V402.723a58.222,58.222,0,0,0-7.671-28.886h0S448.4,356.577,446.48,356.577Z" transform="translate(727.465 -33.362)"/>
    <path id="Path_219" data-name="Path 219" class="cls-6" d="M419.046,365.232s-70.958,5.753-78.629,24.931S328.91,447.7,336.581,447.7s17.26,3.836,19.178,0,9.589-42.191,11.507-42.191,59.451-5.753,59.451-5.753S451.648,369.067,419.046,365.232Z" transform="translate(735.429 -33.02)"/>
    <path id="Path_220" data-name="Path 220" class="cls-4" d="M471.7,323.583s6.107-10.613,13.741-1.395,20.053-7.722,18.146-11.337-8.639.163-20.176-3.609-33.762-11.455-37.484,13.609,5.143,22.436,5.143,22.436,4.063-22.209,7.736-15.83l3.672,6.379,3.186.784Z" transform="translate(718.464 -20.281)"/>
    <circle id="Ellipse_64" data-name="Ellipse 64" class="cls-4" cx="28.077" cy="28.077" r="28.077" transform="translate(1361.569 201.86)"/>
    <path id="Path_221" data-name="Path 221" class="cls-8" d="M701.344,252.67s1.453,26.153-1.453,26.153,18.161,12.35,18.161,12.35l13.077-7.265v-8.718s-17.435-2.179-10.171-21.068S701.344,252.67,701.344,252.67Z" transform="translate(679.139 -10.227)"/>
    <path id="Path_222" data-name="Path 222" class="cls-8" d="M574.633,411.517l-2.179,21.794,7.265,2.179,5.811-5.811,2.179-18.162Z" transform="translate(750.428 89.914)"/>
    <path id="Path_223" data-name="Path 223" class="cls-8" d="M689.124,424.472l3.632,13.8,10.17,6.538,10.9-5.811L701.474,418.66Z" transform="translate(731.688 88.524)"/>
    <circle id="Ellipse_65" data-name="Ellipse 65" class="cls-8" cx="21.068" cy="21.068" r="21.068" transform="translate(1366.797 219.844)"/>
    <path id="Path_224" data-name="Path 224" class="cls-8" d="M693.806,324.648l-5.085-2.179s-8.718-5.085-9.444-15.256,7.265-23.247,7.265-23.247l11.624-3.632,13.657,11.115.146,17.944Z" transform="translate(682.296 -16.374)"/>
    <path id="Path_225" data-name="Path 225" class="cls-8" d="M685.41,285.754,682.5,284.3s-14.53-.726-15.982,16.709-6.538,46.494-6.538,46.494-11.624,20.341-10.9,42.135l-5.812,18.888s-7.991,27.606,1.453,27.606,8.718-29.785,8.718-29.785,17.435-42.135,18.888-49.4,13.8-41.409,10.171-50.853S685.41,285.754,685.41,285.754Z" transform="translate(687.903 -20.33)"/>
    <path id="Path_226" data-name="Path 226" class="cls-8" d="M701.37,335.89v7.991s5.085,5.812,2.906,9.444-4.359,10.9-4.359,10.9l10.171,15.983,34.144,2.906,6.79-45.492Z" transform="translate(678.115 -26.268)"/>
    <path id="Path_227" data-name="Path 227" class="cls-8" d="M736.425,270.5l5.812-2.906s12.35-8.718,22.521-10.171L796,236.357l20.341-48.674s-.726-26.153,5.085-23.247,5.085,25.427,5.085,25.427-10.9,45.041-20.341,57.391-43.588,32.691-43.588,32.691-9.444,10.9-8.718,15.982S736.425,270.5,736.425,270.5Z" transform="translate(670.113 4.918)"/>
    <path id="Path_228" data-name="Path 228" class="cls-4" d="M700.632,366.707s-7.991-5.085-13.076,3.632-14.53,10.9-20.341,37.05-19.614,67.562-23.247,70.469-18.888,33.418-10.171,76.28h14.53l12.351-61.751s39.956-49.4,42.862-69.742l13.076,76.28s.726,29.059,11.624,42.862l11.624,27.606,15.256-7.265-17.435-69.742s8.718-70.468,2.906-90.083l-.835-25.715S715.888,377.6,700.632,366.707Z" transform="translate(685.476 -40.447)"/>
    <path id="Path_229" data-name="Path 229" class="cls-4" d="M638.727,586.362H630.01c-1.453,0-13.077,9.444-7.991,14.529s13.076,14.53,13.076,14.53,28.333,3.6,29.059-1.482-12.35-15.953-12.35-15.953l-3.632-11.624S640.907,578.37,638.727,586.362Z" transform="translate(691.06 -68.906)"/>
    <path id="Path_230" data-name="Path 230" class="cls-4" d="M764.921,594.229s-12.35-.726-14.53-1.453-6.538,18.888,0,20.341,33.418,3.633,33.418,3.633,21.068-.726,19.615-6.538-29.785-17.435-29.785-17.435S770.006,585.511,764.921,594.229Z" transform="translate(670.329 -69.616)"/>
    <path id="Path_231" data-name="Path 231" class="cls-6" d="M702.676,279.137l-3.632-2.179-4.359,3.632s13.076,8.718,10.171,16.709S689.6,322,689.6,322s10.9,12.35,10.9,16.709c0,0,28.333-10.171,49.4,0,0,0,0-14.53,2.906-17.435s4.359-13.077-2.906-21.794a159.271,159.271,0,0,1-13.8-20.341l-7.265-4.359-3.742,1.187s7.374,8.257.109,8.984S706.308,283.5,702.676,279.137Z" transform="translate(679.022 -15.843)"/>
    <path id="Path_232" data-name="Path 232" class="cls-4" d="M732.549,178.347a15.348,15.348,0,0,1-9.52,4.986c-6.346.907-1.36,10.879-1.36,10.879a5.731,5.731,0,0,1,1.813-6.8C727.11,184.24,732.549,182.427,732.549,178.347Z" transform="translate(676.882 3.721)"/>
    <circle id="Ellipse_66" data-name="Ellipse 66" class="cls-4" cx="7.825" cy="7.825" r="7.825" transform="translate(1389.804 192.194)"/>
    <path id="Path_233" data-name="Path 233" class="cls-6" d="M728.308,205.376c-6.045-3.157-16.444-5.641-21.97-5.463l1.4-5.344c4.891,3.323,15.236,5.853,21.97,5.463Z" transform="translate(678.477 2.347)"/>
    <path id="Path_234" data-name="Path 234" class="cls-4" d="M713.158,206.89s-9.526,12.247-28.577,14.969-4.082,32.66-4.082,32.66-5.443-10.887,5.443-20.412S713.158,219.137,713.158,206.89Z" transform="translate(682.717 1.304)"/>
    <path id="Path_235" data-name="Path 235" class="cls-4" d="M717.441,206.1s5.443,19.052,13.608,21.773,4.082,31.3-9.526,34.021c0,0,11.567-15.65,4.763-27.9S715.4,212.22,717.441,206.1Z" transform="translate(677.064 1.371)"/>
    <rect id="Rectangle_8" data-name="Rectangle 8" class="cls-4" width="50.127" height="5.812" transform="translate(1464.505 175.53)"/>
    <ellipse id="Ellipse_67" data-name="Ellipse 67" class="cls-4" cx="4.359" cy="17.435" rx="4.359" ry="17.435" transform="translate(1509.045 161)"/>
    <ellipse id="Ellipse_68" data-name="Ellipse 68" class="cls-4" cx="4.359" cy="17.435" rx="4.359" ry="17.435" transform="translate(1462.823 161)"/>
    <rect id="Rectangle_9" data-name="Rectangle 9" class="cls-4" width="50.127" height="5.812" transform="translate(1487.863 528.699)"/>
    <ellipse id="Ellipse_69" data-name="Ellipse 69" class="cls-4" cx="4.359" cy="17.435" rx="4.359" ry="17.435" transform="translate(1532.489 513.439)"/>
    <ellipse id="Ellipse_70" data-name="Ellipse 70" class="cls-4" cx="4.359" cy="17.435" rx="4.359" ry="17.435" transform="translate(1486.269 513.439)"/>
    <path id="Path_236" data-name="Path 236" class="cls-3" d="M239.353,589.482c0-21.408-13.255-38.763-29.605-38.763-10.277,0-19.328,6.859-24.636,17.268a17.724,17.724,0,0,0-5.658-.93,19.275,19.275,0,0,0-13.256,5.6c-4.785-12.979-14.932-21.933-26.676-21.933-10.981,0-20.558,7.834-25.669,19.46a18.4,18.4,0,0,0-10.132-3.123C91.172,567.056,81,580.375,81,596.8a36.547,36.547,0,0,0,3.58,16.018h148.8a46.866,46.866,0,0,0,5.971-23.341Z" transform="translate(778.222 -65.397)"/>
  </g>
</svg>
